<?xml version="1.0" encoding="utf-8"?>
<!-- Generator: Adobe Illustrator 27.5.0, SVG Export Plug-In . SVG Version: 6.00 Build 0)  -->
<svg version="1.1" xmlns="http://www.w3.org/2000/svg" xmlns:xlink="http://www.w3.org/1999/xlink" x="0px" y="0px"
	 viewBox="0 0 500 500" style="enable-background:new 0 0 500 500;" xml:space="preserve">
<g id="Background_Simple">
	<g>
		<path style="fill:#92E3A9;" d="M439.268,117.71c-1.556-2.408-3.175-4.772-4.865-7.082C411.888,79.882,374.407,58.833,337.98,49.3
			c-15.958-4.183-32.342-6.371-48.698-6.93c-107.28-3.623-146.69,78.585-181.255,99.781c-34.564,21.196-87.605,57.4-80.95,133.454
			c5.05,57.826,40.445,113.117,105.089,138.278c7.12,2.78,14.602,5.193,22.435,7.195c14.571,3.725,30.364,6.065,47.38,6.768
			c48.874,2.024,88.558-8.926,127.375-36.498c9.023-6.409,17.998-13.638,29.708-14.43c8.511-0.576,16.581,2.266,7.684,9.911
			c-10.456,8.985,1.609,26.658,28.152,14.38c44.332-20.507,62.568-64.749,71.16-109.737
			C476.606,236.249,471.494,167.576,439.268,117.71z"/>
		<path style="opacity:0.8;fill:#FFFFFF;" d="M439.268,117.71c-1.556-2.408-3.175-4.772-4.865-7.082
			C411.888,79.882,374.407,58.833,337.98,49.3c-15.958-4.183-32.342-6.371-48.698-6.93c-107.28-3.623-146.69,78.585-181.255,99.781
			c-34.564,21.196-87.605,57.4-80.95,133.454c5.05,57.826,40.445,113.117,105.089,138.278c7.12,2.78,14.602,5.193,22.435,7.195
			c14.571,3.725,30.364,6.065,47.38,6.768c48.874,2.024,88.558-8.926,127.375-36.498c9.023-6.409,17.998-13.638,29.708-14.43
			c8.511-0.576,16.581,2.266,7.684,9.911c-10.456,8.985,1.609,26.658,28.152,14.38c44.332-20.507,62.568-64.749,71.16-109.737
			C476.606,236.249,471.494,167.576,439.268,117.71z"/>
	</g>
</g>
<g id="Lines">
	<g>
		
			<line style="fill:none;stroke:#263238;stroke-linejoin:round;stroke-miterlimit:10;" x1="260.004" y1="100.728" x2="260.004" y2="454.832"/>
		
			<line style="fill:none;stroke:#263238;stroke-linejoin:round;stroke-miterlimit:10;" x1="260.004" y1="54.369" x2="260.004" y2="93.422"/>
		
			<line style="fill:none;stroke:#263238;stroke-linejoin:round;stroke-miterlimit:10;" x1="451.133" y1="254.6" x2="460.561" y2="254.6"/>
		
			<line style="fill:none;stroke:#263238;stroke-linejoin:round;stroke-miterlimit:10;" x1="185.205" y1="254.6" x2="443.097" y2="254.6"/>
		
			<line style="fill:none;stroke:#263238;stroke-linejoin:round;stroke-miterlimit:10;" x1="59.447" y1="254.6" x2="177.169" y2="254.6"/>
	</g>
</g>
<g id="Circle_4">
	<circle style="fill:#263238;" cx="366.794" cy="379.198" r="75.534"/>
</g>
<g id="Circle_3">
	<circle style="fill:#263238;" cx="148.656" cy="379.198" r="75.534"/>
</g>
<g id="Circle_2">
	
		<ellipse transform="matrix(0.7071 -0.7071 0.7071 0.7071 0.4972 301.4982)" style="fill:#263238;" cx="364.189" cy="150.149" rx="75.534" ry="75.534"/>
</g>
<g id="Circle_1">
	
		<ellipse transform="matrix(0.7071 -0.7071 0.7071 0.7071 -62.6311 149.093)" style="fill:#263238;" cx="148.656" cy="150.149" rx="75.534" ry="75.534"/>
</g>
<g id="Character_4">
	<g>
		<g>
			<path style="fill:#9E9E9E;stroke:#263238;stroke-linejoin:round;stroke-miterlimit:10;" d="M342.178,298.445
				c0,0-7.544-0.862-11.854-8.621c-4.311-7.759,2.586-14.009,13.794-20.26c11.208-6.25,27.804-8.19,39.873-3.449
				c12.07,4.742,21.984,20.691,21.769,33.407c-0.215,12.716-1.509,14.656-2.586,14.225c-1.078-0.431-2.371-3.664-2.371-3.664
				s0.862,7.544-0.862,12.07c-1.724,4.526-3.88,5.819-6.035,5.388c-2.155-0.431-4.095-4.526-5.604-7.113
				c-1.509-2.586-1.078-6.466-11.854-11.423c-10.777-4.957-15.087-7.975-17.243-9.268c-2.155-1.293-12.501-4.957-12.501-4.957
				L342.178,298.445z"/>
			<g>
				<path style="fill:none;stroke:#263238;stroke-linecap:round;stroke-linejoin:round;stroke-miterlimit:10;" d="M392.179,292.417
					c5.604-0.489,8.514-1.407,8.514-1.407"/>
				<path style="fill:none;stroke:#263238;stroke-linecap:round;stroke-linejoin:round;stroke-miterlimit:10;" d="M350.751,284.36
					c0,0,11.601,6.932,26.739,8.064c4.254,0.318,7.95,0.346,11.065,0.221"/>
				<path style="fill:none;stroke:#263238;stroke-linecap:round;stroke-linejoin:round;stroke-miterlimit:10;" d="M373.246,296.386
					c0,0,16.128,0.424,29.569-2.688"/>
				<path style="fill:none;stroke:#263238;stroke-linecap:round;stroke-linejoin:round;stroke-miterlimit:10;" d="M342.263,280.965
					c0,0-1.698-5.235-0.283-7.64"/>
				<path style="fill:none;stroke:#263238;stroke-linecap:round;stroke-linejoin:round;stroke-miterlimit:10;" d="M336.35,289.472
					c1.688,2.637,4.356,2.387,4.356,2.387"/>
				<path style="fill:none;stroke:#263238;stroke-linecap:round;stroke-linejoin:round;stroke-miterlimit:10;" d="M340.848,276.72
					c0,0-6.65,3.396-5.659,9.479"/>
				<path style="fill:none;stroke:#263238;stroke-linecap:round;stroke-linejoin:round;stroke-miterlimit:10;" d="M398.405,303.783
					c1.041,0.385,2.04,0.88,2.854,1.517"/>
				<path style="fill:none;stroke:#263238;stroke-linecap:round;stroke-linejoin:round;stroke-miterlimit:10;" d="M391.78,302.47
					c0,0,2.17,0.099,4.618,0.704"/>
			</g>
		</g>
		<path style="fill:#FFFFFF;stroke:#263238;stroke-linejoin:round;stroke-miterlimit:10;" d="M376.112,471.939
			c0,0,24.352-64.555,26.879-81.325c2.527-16.77,7.351-37.676,3.446-44.109c-3.905-6.432-14.473-8.041-25.041-4.595
			c-10.568,3.446-21.595,10.338-21.595,10.338s-26.649,53.757-28.257,65.473c-1.608,11.716,1.149,16.311,1.149,16.311l-8.73,24.581"
			/>
		<path style="fill:#FFFFFF;stroke:#263238;stroke-linejoin:round;stroke-miterlimit:10;" d="M323.642,332.93
			c0,0-0.168,8.662-0.168,12.693c0,4.03,1.497,17.502,1.497,17.848c0,0.345-1.842,4.03-1.842,4.03l15.084,4.491l4.721-10.478
			c0,0,5.527-7.024,7.6-9.787c2.073-2.764,4.836-10.594,5.642-12.206c0.806-1.612,1.957-2.648,1.957-2.648l-11.63-14.969
			l-11.975,8.521L323.642,332.93z"/>
		<path style="fill:none;stroke:#263238;stroke-linejoin:round;stroke-miterlimit:10;" d="M332.705,343.63
			c0,0,4.834,3.719,5.764,6.321c0.93,2.603-1.859,6.507-1.859,6.507"/>
		<path style="fill:#92E3A9;stroke:#263238;stroke-linejoin:round;stroke-miterlimit:10;" d="M345.291,320.262l-15.078,15.832
			c-0.286,0.3-0.27,0.777,0.035,1.057l11.589,10.64c0.292,0.268,0.743,0.259,1.024-0.02l15.088-14.98
			c0.292-0.29,0.292-0.763,0-1.053l-11.598-11.492C346.054,319.954,345.577,319.961,345.291,320.262z"/>
		<g>
			<path style="fill:#FFFFFF;stroke:#263238;stroke-linejoin:round;stroke-miterlimit:10;" d="M326.444,334.87
				c0,0,5.173,5.604,7.759,6.466c2.586,0.862,3.233-0.431,2.371-1.94c-0.862-1.509-7.328-9.052-8.19-9.483
				c-0.862-0.431-4.311,1.509-4.742,3.017l0.647,1.509"/>
			<path style="fill:#FFFFFF;stroke:#263238;stroke-linejoin:round;stroke-miterlimit:10;" d="M328.384,329.912
				c0,0,1.078-3.233,3.017-3.448c1.94-0.216,7.113,6.466,8.837,7.759c1.724,1.293,1.293,2.371-0.862,2.586
				c-2.155,0.216-7.544-3.233-8.406-3.88C330.108,332.283,328.384,329.912,328.384,329.912z"/>
			<path style="fill:#FFFFFF;stroke:#263238;stroke-linejoin:round;stroke-miterlimit:10;" d="M331.401,326.464
				c0,0,1.01-4.163,4.278-3.41c1.693,0.39,8.654,7.074,9.731,8.152c1.078,1.078,0.431,1.94-1.509,1.724
				c-1.94-0.215-7.975-4.311-7.975-4.311l-2.155-1.078L331.401,326.464z"/>
		</g>
		<g>
			<path style="fill:#FFFFFF;stroke:#263238;stroke-linecap:round;stroke-linejoin:round;stroke-miterlimit:10;" d="M343.686,282.28
				c0,0-4.311,12.07-4.526,18.32c-0.216,6.25,3.017,7.544,2.155,9.914c-0.862,2.371-2.586,6.466-1.94,9.268
				c0.647,2.802,6.466,3.664,6.466,3.664s6.25,14.441,8.621,15.518c2.371,1.078,9.699-2.155,9.699-2.155s0.647,1.293,0.647,8.19
				s-3.88,10.992-4.095,16.165c-0.215,5.173,1.509,8.621,14.656,3.664c13.147-4.957,21.553-15.303,25.002-17.242
				c3.449-1.94,6.682-3.449,6.682-3.449s-11.208-14.441-15.949-22.846c-4.742-8.406-4.095-10.13-4.095-10.13l3.664-9.699
				l-11.423-4.095c0,0-1.94,6.035-4.095,6.25c-2.155,0.216-5.173-2.371-5.388-3.448c-0.215-1.078-1.509-3.664-1.509-3.664
				s-7.759,0.215-15.518-4.526C344.98,287.237,343.686,282.28,343.686,282.28z"/>
			<g>
				<path style="fill:none;stroke:#263238;stroke-linecap:round;stroke-linejoin:round;stroke-miterlimit:10;" d="M385.174,312.552
					l-2.851,1.037c0,0-0.259,6.221-3.888,10.368"/>
				<path style="fill:#92E3A9;stroke:#263238;stroke-linejoin:round;stroke-miterlimit:10;" d="M383.878,311.645
					c0,1.074-0.87,1.944-1.944,1.944c-1.074,0-1.944-0.87-1.944-1.944c0-1.074,0.87-1.944,1.944-1.944
					C383.007,309.701,383.878,310.571,383.878,311.645z"/>
			</g>
			<path style="fill:none;stroke:#263238;stroke-linecap:round;stroke-linejoin:round;stroke-miterlimit:10;" d="M349.478,305.016
				c-4.316-0.18-4.952,0.707-4.067,2.05"/>
			<path style="fill:none;stroke:#263238;stroke-linecap:round;stroke-linejoin:round;stroke-miterlimit:10;" d="M347.35,308.575
				c0,0,2.371,0.215,4.526-0.862"/>
			<path style="fill:none;stroke:#263238;stroke-linecap:round;stroke-linejoin:round;stroke-miterlimit:10;" d="M343.04,304.048
				c0,0,0.862-4.311,6.25-3.017"/>
			<path style="fill:none;stroke:#263238;stroke-linecap:round;stroke-linejoin:round;stroke-miterlimit:10;" d="M349.506,322.369
				c0,0,4.526-1.94,7.328-4.742c0,0,0,4.957-2.802,6.681C351.23,326.033,349.506,322.369,349.506,322.369z"/>
			<polygon style="fill:#263238;stroke:#263238;stroke-linecap:round;stroke-linejoin:round;stroke-miterlimit:10;" points="
				364.162,336.809 373.861,330.559 365.455,346.508 			"/>
		</g>
		<path style="fill:#92E3A9;stroke:#263238;stroke-linejoin:round;stroke-miterlimit:10;" d="M320.747,462.52l8.5-27.568
			c0,0-15.622,11.946-19.068,14.703c-3.446,2.757-8.96-5.513-0.919-18.149c8.041-12.635,24.352-42.041,27.798-47.325
			c3.446-5.284,8.5-18.608,13.784-25.96c5.284-7.351,14.613-11.714,14.613-11.714s-3.356,9.876-12.316,28.484
			c-8.96,18.608-14.703,34.689-16.541,44.108c-1.838,9.419-0.459,12.635-0.459,12.635s-9.189,27.108-9.879,28.716"/>
		<path style="fill:none;stroke:#263238;stroke-linejoin:round;stroke-miterlimit:10;" d="M345.328,377.749
			c0,0-10.797,20.446-12.865,32.163c-2.068,11.716,3.676,21.824,3.676,21.824"/>
		<path style="fill:#92E3A9;stroke:#263238;stroke-linejoin:round;stroke-miterlimit:10;" d="M403.68,471.25
			c0,0,11.487-35.838,15.392-55.365c3.905-19.527,8.27-33.081,4.595-47.325c-3.676-14.243-16.614-24.422-16.614-24.422
			s-9.575,3.517-23.819,22.125c-14.243,18.608-26.189,38.365-32.392,54.446c-6.203,16.081-0.46,24.122-0.46,24.122l-5.284,27.568"/>
		<path style="fill:#92E3A9;stroke:#263238;stroke-linejoin:round;stroke-miterlimit:10;" d="M411.491,408.763
			c0,0-45.946,59.271-55.365,59.73c-9.419,0.46-17.46-13.784-18.608-14.933c-1.149-1.149-11.716-8.73-10.797-12.865
			c0.919-4.135,4.135-8.73,6.892-9.189c2.757-0.459,10.568,5.743,10.568,5.743s29.635-38.825,30.324-39.973
			c0.689-1.149,8.041-23.662,19.068-35.379c11.027-11.716,18.608-6.203,20.905-1.838"/>
		<path style="fill:none;stroke:#263238;stroke-linejoin:round;stroke-miterlimit:10;" d="M344.18,437.25
			c0,0-3.446,4.365-3.905,9.649"/>
		<path style="fill:#92E3A9;stroke:#263238;stroke-linejoin:round;stroke-miterlimit:10;" d="M324.652,431.966
			c4.595-5.054,6.432-16.081,6.432-25.041c0-8.96,4.365-22.284,4.824-25.27c0.46-2.987,5.054-8.73,4.824-11.027
			c-0.23-2.297-19.068-5.973-19.068-5.973s-1.608,2.068-1.608,3.676c0,1.608,0,1.608,0,1.608s-9.419,17.689-13.554,34.919
			c-4.135,17.23-4.824,22.514-4.824,29.865s3.446,17.46,8.5,14.932c5.054-2.527,6.432-8.041,6.432-8.041"/>
	</g>
</g>
<g id="Character_3">
	<g>
		<g>
			<path style="fill:#92E3A9;" d="M219.55,458.345c0,0-1.757-8.784-1.757-10.76c0-1.977-2.416-46.116-2.855-62.147
				c-0.439-16.031-7.247-16.031-12.737-18.886c-5.49-2.855-24.815-10.76-28.548-12.298c-3.733-1.537-4.831-3.294-6.368-4.392
				c-1.537-1.098-6.368-1.537-6.368-1.537s-30.223-7.58-35.315-6.425c-5.092,1.155-20.025,12.794-26.613,17.405
				c-6.588,4.612-28.987,16.69-28.109,27.67c0.878,10.98,14.933,45.457,19.764,53.363c4.831,7.906,14.713,21.741,18.227,23.497"/>
			<g>
				<path style="fill:#FFFFFF;" d="M115.218,438.535c2.592,1.604,5.271,3.263,10.586,3.263c5.315,0,7.995-1.658,10.587-3.263
					c2.462-1.523,4.788-2.963,9.534-2.963c4.746,0,7.072,1.439,9.534,2.963c2.592,1.604,5.272,3.263,10.587,3.263
					c5.315,0,7.996-1.658,10.588-3.263c2.463-1.523,4.789-2.963,9.536-2.963s7.073,1.439,9.536,2.963
					c2.592,1.604,5.273,3.263,10.588,3.263c5.315,0,7.996-1.658,10.588-3.263c0.158-0.098,0.316-0.193,0.474-0.29
					c-0.036-0.724-0.074-1.481-0.114-2.265c-0.483,0.28-0.95,0.568-1.413,0.855c-2.463,1.523-4.789,2.963-9.536,2.963
					c-4.747,0-7.073-1.44-9.536-2.963c-2.592-1.604-5.273-3.263-10.588-3.263c-5.315,0-7.996,1.658-10.588,3.263
					c-2.462,1.523-4.788,2.963-9.535,2.963c-4.746,0-7.072-1.44-9.535-2.963c-2.592-1.604-5.272-3.263-10.587-3.263
					c-5.314,0-7.995,1.658-10.586,3.263c-2.462,1.523-4.788,2.963-9.534,2.963c-4.746,0-7.071-1.44-9.533-2.963
					c-2.592-1.604-5.272-3.263-10.586-3.263c-5.315,0-7.995,1.658-10.587,3.263c-1.537,0.951-3.022,1.87-5.076,2.425
					c0.219,0.394,0.43,0.763,0.622,1.077c0.139,0.228,0.284,0.462,0.432,0.7c2.047-0.633,3.577-1.576,5.075-2.502
					c2.462-1.523,4.789-2.963,9.535-2.963C110.431,435.572,112.756,437.012,115.218,438.535z"/>
				<path style="fill:#FFFFFF;" d="M217.981,449.489c-0.755,0.404-1.457,0.837-2.151,1.266c-2.463,1.523-4.789,2.963-9.536,2.963
					c-4.747,0-7.073-1.44-9.536-2.963c-2.592-1.605-5.273-3.263-10.588-3.263c-5.315,0-7.996,1.658-10.588,3.263
					c-2.462,1.523-4.788,2.963-9.535,2.963c-4.746,0-7.072-1.44-9.535-2.963c-2.592-1.605-5.272-3.263-10.587-3.263
					c-5.314,0-7.995,1.658-10.586,3.263c-2.462,1.523-4.788,2.963-9.534,2.963c-4.746,0-7.071-1.44-9.533-2.963
					c-2.592-1.605-5.272-3.263-10.586-3.263c-4.148,0-6.689,1.011-8.839,2.217c0.386,0.548,0.776,1.095,1.167,1.639
					c1.915-1.047,4.113-1.856,7.671-1.856c4.745,0,7.071,1.439,9.533,2.963c2.592,1.604,5.271,3.263,10.586,3.263
					c5.315,0,7.995-1.658,10.587-3.263c2.462-1.523,4.788-2.963,9.534-2.963c4.746,0,7.072,1.439,9.534,2.963
					c2.592,1.604,5.272,3.263,10.587,3.263c5.315,0,7.996-1.658,10.588-3.263c2.463-1.523,4.789-2.963,9.536-2.963
					s7.073,1.439,9.536,2.963c2.592,1.604,5.273,3.263,10.588,3.263c5.315,0,7.996-1.658,10.588-3.263
					c0.473-0.292,0.944-0.578,1.425-0.854C218.181,450.846,218.069,450.125,217.981,449.489z"/>
				<path style="fill:#FFFFFF;" d="M85.563,372.202c5.315,0,7.995-1.658,10.587-3.263c2.462-1.524,4.789-2.963,9.535-2.963
					c4.745,0,7.071,1.439,9.533,2.963c2.592,1.604,5.271,3.263,10.586,3.263c5.315,0,7.995-1.658,10.587-3.263
					c2.462-1.524,4.788-2.963,9.534-2.963c4.746,0,7.072,1.439,9.534,2.963c2.592,1.604,5.272,3.263,10.587,3.263
					c5.315,0,7.996-1.658,10.588-3.263c2.463-1.524,4.789-2.963,9.536-2.963s7.073,1.439,9.536,2.963
					c2.592,1.604,5.273,3.263,10.588,3.263c1.872,0,3.412-0.208,4.742-0.545c-0.583-0.658-1.209-1.204-1.865-1.67
					c-0.859,0.133-1.799,0.215-2.878,0.215c-4.747,0-7.073-1.439-9.536-2.963c-2.592-1.604-5.273-3.263-10.588-3.263
					c-5.315,0-7.996,1.658-10.588,3.263c-2.462,1.523-4.788,2.963-9.535,2.963c-4.746,0-7.072-1.439-9.535-2.963
					c-2.592-1.604-5.272-3.263-10.587-3.263c-5.314,0-7.995,1.658-10.586,3.263c-2.462,1.523-4.788,2.963-9.534,2.963
					c-4.746,0-7.071-1.439-9.533-2.963c-2.592-1.604-5.272-3.263-10.586-3.263c-5.315,0-7.995,1.658-10.587,3.263
					c-2.462,1.523-4.788,2.963-9.535,2.963c-0.927,0-1.739-0.068-2.5-0.168c-0.71,0.543-1.413,1.095-2.1,1.658
					C82.261,372.008,83.758,372.202,85.563,372.202z"/>
				<path style="fill:#FFFFFF;" d="M115.218,355.02c2.592,1.604,5.271,3.263,10.586,3.263c5.315,0,7.995-1.658,10.587-3.263
					c2.462-1.523,4.788-2.963,9.534-2.963c4.746,0,7.072,1.439,9.534,2.963c2.592,1.604,5.272,3.263,10.587,3.263
					c5.01,0,7.679-1.473,10.14-2.986c-0.982-0.404-1.775-0.73-2.321-0.955c-1.951,1.087-4.168,1.941-7.819,1.941
					c-4.746,0-7.072-1.439-9.535-2.963c-2.592-1.604-5.272-3.263-10.587-3.263c-5.314,0-7.995,1.658-10.586,3.263
					c-2.462,1.523-4.788,2.963-9.534,2.963c-4.746,0-7.071-1.439-9.533-2.963c-1.579-0.977-3.194-1.972-5.413-2.603
					c-0.733,0.522-1.464,1.047-2.186,1.569C111.53,352.747,113.339,353.856,115.218,355.02z"/>
				<path style="fill:#FFFFFF;" d="M105.686,421.653c4.745,0,7.071,1.44,9.533,2.963c2.592,1.604,5.271,3.263,10.586,3.263
					c5.315,0,7.995-1.658,10.587-3.263c2.462-1.523,4.788-2.963,9.534-2.963c4.746,0,7.072,1.44,9.534,2.963
					c2.592,1.604,5.272,3.263,10.587,3.263c5.315,0,7.996-1.658,10.588-3.263c2.463-1.523,4.789-2.963,9.536-2.963
					s7.073,1.44,9.536,2.963c2.592,1.604,5.273,3.263,10.588,3.263c5.176,0,7.853-1.572,10.384-3.137
					c-0.037-0.752-0.075-1.511-0.113-2.278c-0.247,0.15-0.492,0.301-0.735,0.451c-2.463,1.524-4.789,2.963-9.536,2.963
					c-4.747,0-7.073-1.439-9.536-2.963c-2.592-1.604-5.273-3.263-10.588-3.263c-5.315,0-7.996,1.658-10.588,3.263
					c-2.462,1.524-4.788,2.963-9.535,2.963c-4.746,0-7.072-1.439-9.535-2.963c-2.592-1.604-5.272-3.263-10.587-3.263
					c-5.314,0-7.995,1.658-10.586,3.263c-2.462,1.524-4.788,2.963-9.534,2.963c-4.746,0-7.071-1.439-9.533-2.963
					c-2.592-1.604-5.272-3.263-10.586-3.263c-5.315,0-7.995,1.658-10.587,3.263c-2.462,1.524-4.788,2.963-9.535,2.963
					c-0.661,0-1.265-0.034-1.839-0.086c0.298,0.702,0.594,1.392,0.887,2.067c0.308,0.012,0.625,0.019,0.952,0.019
					c5.315,0,7.995-1.658,10.587-3.263C98.613,423.093,100.939,421.653,105.686,421.653z"/>
				<path style="fill:#FFFFFF;" d="M196.758,381.158c-2.592-1.604-5.273-3.263-10.588-3.263c-5.315,0-7.996,1.658-10.588,3.263
					c-2.462,1.523-4.788,2.963-9.535,2.963c-4.746,0-7.072-1.439-9.535-2.963c-2.592-1.604-5.272-3.263-10.587-3.263
					c-5.314,0-7.995,1.658-10.586,3.263c-2.462,1.523-4.788,2.963-9.534,2.963c-4.746,0-7.071-1.439-9.533-2.963
					c-2.592-1.604-5.272-3.263-10.586-3.263c-5.315,0-7.995,1.658-10.587,3.263c-2.462,1.523-4.788,2.963-9.535,2.963
					c-4.746,0-7.071-1.439-9.533-2.963c-0.865-0.535-1.742-1.075-2.721-1.559c-0.39,0.573-0.733,1.147-1.039,1.723
					c0.962,0.461,1.828,0.992,2.708,1.536c2.592,1.604,5.272,3.263,10.586,3.263c5.315,0,7.995-1.658,10.587-3.263
					c2.462-1.523,4.789-2.963,9.535-2.963c4.745,0,7.071,1.439,9.533,2.963c2.592,1.604,5.271,3.263,10.586,3.263
					c5.315,0,7.995-1.658,10.587-3.263c2.462-1.523,4.788-2.963,9.534-2.963c4.746,0,7.072,1.439,9.534,2.963
					c2.592,1.604,5.272,3.263,10.587,3.263c5.315,0,7.996-1.658,10.588-3.263c2.463-1.523,4.789-2.963,9.536-2.963
					s7.073,1.439,9.536,2.963c2.592,1.604,5.273,3.263,10.588,3.263c3.986,0,6.491-0.933,8.588-2.076
					c-0.042-0.778-0.103-1.507-0.177-2.206c-2.104,1.244-4.385,2.281-8.411,2.281C201.547,384.121,199.221,382.682,196.758,381.158z
					"/>
				<path style="fill:#FFFFFF;" d="M196.758,395.077c-2.592-1.604-5.273-3.263-10.588-3.263c-5.315,0-7.996,1.658-10.588,3.263
					c-2.462,1.523-4.788,2.963-9.535,2.963c-4.746,0-7.072-1.439-9.535-2.963c-2.592-1.604-5.272-3.263-10.587-3.263
					c-5.314,0-7.995,1.658-10.586,3.263c-2.462,1.523-4.788,2.963-9.534,2.963c-4.746,0-7.071-1.439-9.533-2.963
					c-2.592-1.604-5.272-3.263-10.586-3.263c-5.315,0-7.995,1.658-10.587,3.263c-2.462,1.523-4.788,2.963-9.535,2.963
					c-4.746,0-7.071-1.439-9.533-2.963c-1.233-0.763-2.49-1.537-4.037-2.14c0.2,0.8,0.419,1.63,0.663,2.5
					c0.808,0.414,1.562,0.87,2.321,1.34c2.592,1.604,5.272,3.263,10.586,3.263c5.315,0,7.995-1.658,10.587-3.263
					c2.462-1.523,4.789-2.963,9.535-2.963c4.745,0,7.071,1.439,9.533,2.963c2.592,1.604,5.271,3.263,10.586,3.263
					c5.315,0,7.995-1.658,10.587-3.263c2.462-1.523,4.788-2.963,9.534-2.963c4.746,0,7.072,1.439,9.534,2.963
					c2.592,1.604,5.272,3.263,10.587,3.263c5.315,0,7.996-1.658,10.588-3.263c2.463-1.523,4.789-2.963,9.536-2.963
					s7.073,1.439,9.536,2.963c2.592,1.604,5.273,3.263,10.588,3.263c4.317,0,6.896-1.094,9.102-2.365
					c-0.033-0.773-0.065-1.532-0.096-2.274c-2.28,1.396-4.6,2.638-9.006,2.638C201.547,398.04,199.221,396.601,196.758,395.077z"/>
				<path style="fill:#FFFFFF;" d="M96.151,410.697c2.462-1.523,4.789-2.963,9.535-2.963c4.745,0,7.071,1.439,9.533,2.963
					c2.592,1.604,5.271,3.263,10.586,3.263c5.315,0,7.995-1.658,10.587-3.263c2.462-1.523,4.788-2.963,9.534-2.963
					c4.746,0,7.072,1.439,9.534,2.963c2.592,1.604,5.272,3.263,10.587,3.263c5.315,0,7.996-1.658,10.588-3.263
					c2.463-1.523,4.789-2.963,9.536-2.963s7.073,1.439,9.536,2.963c2.592,1.604,5.273,3.263,10.588,3.263
					c4.728,0,7.371-1.312,9.722-2.732c-0.036-0.762-0.073-1.522-0.108-2.279c-0.026,0.016-0.052,0.032-0.078,0.048
					c-2.463,1.523-4.789,2.963-9.536,2.963c-4.747,0-7.073-1.439-9.536-2.963c-2.592-1.604-5.273-3.263-10.588-3.263
					c-5.315,0-7.996,1.658-10.588,3.263c-2.462,1.523-4.788,2.963-9.535,2.963c-4.746,0-7.072-1.439-9.535-2.963
					c-2.592-1.604-5.272-3.263-10.587-3.263c-5.314,0-7.995,1.658-10.586,3.263c-2.462,1.523-4.788,2.963-9.534,2.963
					c-4.746,0-7.071-1.439-9.533-2.963c-2.592-1.604-5.272-3.263-10.586-3.263c-5.315,0-7.995,1.658-10.587,3.263
					c-2.462,1.523-4.788,2.963-9.535,2.963c-3.864,0-6.12-0.958-8.155-2.135c0.338,0.923,0.681,1.848,1.031,2.776
					c1.815,0.791,4.018,1.36,7.125,1.36C90.878,413.96,93.559,412.302,96.151,410.697z"/>
			</g>
			<path style="fill:none;stroke:#263238;stroke-linejoin:round;stroke-miterlimit:10;" d="M219.55,458.345
				c0,0-1.757-8.784-1.757-10.76c0-1.977-2.416-46.116-2.855-62.147c-0.439-16.031-7.247-16.031-12.737-18.886
				c-5.49-2.855-24.815-10.76-28.548-12.298c-3.733-1.537-4.831-3.294-6.368-4.392c-1.537-1.098-6.368-1.537-6.368-1.537
				s-30.223-7.58-35.315-6.425c-5.092,1.155-20.025,12.794-26.613,17.405c-6.588,4.612-28.987,16.69-28.109,27.67
				c0.878,10.98,14.933,45.457,19.764,53.363c4.831,7.906,14.713,21.741,18.227,23.497"/>
			
				<line style="fill:none;stroke:#263238;stroke-linejoin:round;stroke-miterlimit:10;" x1="196.272" y1="458.345" x2="199.786" y2="384.998"/>
			<path style="fill:none;stroke:#263238;stroke-linejoin:round;stroke-miterlimit:10;" d="M168.163,353.156
				c0,0-0.22,7.027-3.074,12.957"/>
			<path style="fill:none;stroke:#263238;stroke-linejoin:round;stroke-miterlimit:10;" d="M171.018,355.352
				c0,0,1.757,9.882-0.439,18.446"/>
			<path style="fill:none;stroke:#263238;stroke-linejoin:round;stroke-miterlimit:10;" d="M114.581,387.853
				c0,0-6.149-10.761-12.737-14.713"/>
			<path style="fill:none;stroke:#263238;stroke-linejoin:round;stroke-miterlimit:10;" d="M104.26,368.089
				c0,0,6.588,6.588,8.125,11.858"/>
			<path style="fill:none;stroke:#263238;stroke-linejoin:round;stroke-miterlimit:10;" d="M104.479,414.864
				c0,0-10.541,8.784-12.737,15.592"/>
			<path style="fill:none;stroke:#263238;stroke-linejoin:round;stroke-miterlimit:10;" d="M100.307,415.742
				c0,0-7.686,2.855-9.223,7.466"/>
		</g>
		<g>
			<path style="fill:#FFFFFF;stroke:#263238;stroke-linejoin:round;stroke-miterlimit:10;" d="M164.25,343.003
				c0,0-0.736,14.723-2.945,17.3c-2.208,2.577-13.619,3.129-19.14-1.104c-5.521-4.233-16.563-17.3-16.563-17.3l0.92-21.349
				c0,0,8.466,7.362,16.011,15.275C150.079,343.74,164.25,343.003,164.25,343.003z"/>
			<g>
				<path style="fill:#FFFFFF;stroke:#263238;stroke-linejoin:round;stroke-miterlimit:10;" d="M172.315,290.714
					c0,0,1.736,4.992,1.302,12.589c-0.434,7.597,1.736,12.807,0.217,18.233c-1.519,5.426-6.295,20.404-7.814,22.14
					c-1.52,1.736-13.892,3.69-17.582,2.171c-3.69-1.52-22.791-22.791-22.791-22.791s-8.031-3.907-9.551-8.465
					c-1.519-4.558-1.302-5.643-1.302-5.643s3.256-8.465,3.907-10.853s4.341-17.582,16.931-21.272
					c12.59-3.69,22.357-0.434,25.83,0.868c3.473,1.302,7.38,4.992,7.38,4.992L172.315,290.714z"/>
				<path style="fill:none;stroke:#263238;stroke-linejoin:round;stroke-miterlimit:10;" d="M165.586,311.335
					c0,0,4.124,6.729,2.388,8.031c-1.736,1.302-9.985,2.605-12.372,1.302c-2.388-1.302-1.085-4.558-1.085-4.558
					s-5.861,0.434-8.465,3.039"/>
				<path style="fill:#FFFFFF;stroke:#263238;stroke-linejoin:round;stroke-miterlimit:10;" d="M165.803,324.358
					c0,0-10.853,1.737-21.272-1.953c0,0,3.256,6.946,10.853,8.031C162.981,331.522,165.803,324.358,165.803,324.358z"/>
				<path style="fill:#263238;" d="M166.382,304.516c0,1.388,0.745,2.514,1.664,2.514c0.919,0,1.664-1.126,1.664-2.514
					s-0.745-2.514-1.664-2.514C167.127,302.001,166.382,303.127,166.382,304.516z"/>
				<ellipse style="fill:#263238;" cx="150.175" cy="306.777" rx="1.664" ry="2.514"/>
				<path style="fill:none;stroke:#263238;stroke-linejoin:round;stroke-miterlimit:10;" d="M165.586,306.994
					c0,0,1.302,1.736,5.426,2.822"/>
				<path style="fill:none;stroke:#263238;stroke-linejoin:round;stroke-miterlimit:10;" d="M151.28,310.472
					c0,0-3.094,2.002-6.188,1.82"/>
				<path style="fill:#263238;stroke:#263238;stroke-linecap:round;stroke-linejoin:round;stroke-miterlimit:10;" d="
					M154.927,296.997c0,0-5.233-0.841-7.879,0.026c-2.646,0.866-5.394,3.944-4.86,5.347c0.534,1.402,2.719-1.792,5.907-2.723
					s6.325-0.756,7.568-1.088C156.907,298.227,154.927,296.997,154.927,296.997z"/>
				<path style="fill:#263238;stroke:#263238;stroke-linecap:round;stroke-linejoin:round;stroke-miterlimit:10;" d="
					M162.708,296.211c0,0,3.866-1.734,6.013-1.281c2.147,0.453,4.7,3.168,4.501,4.702c-0.199,1.534-2.34-1.395-4.91-1.825
					c-2.57-0.43-4.936,0.27-5.934,0.134C161.38,297.807,162.708,296.211,162.708,296.211z"/>
				<path style="fill:#263238;stroke:#263238;stroke-linecap:round;stroke-linejoin:round;stroke-miterlimit:10;" d="
					M130.639,267.923c0,0,11.938-7.38,23.659-5.644c11.721,1.737,22.791,8.9,23.008,11.287c0.217,2.388-5.426,2.822-5.426,2.822
					s5.643,4.992,4.558,9.551c-1.085,4.558-4.124,4.775-4.124,4.775l-3.473-8.031c0,0-12.806,0.651-18.233-0.217
					s-8.682-1.953-8.682-1.953l-9.768,5.209c0,0,10.419,2.388,8.9,3.907c-1.519,1.519-6.295,1.302-6.295,1.302s4.992,6.946,3.69,8.9
					c-1.302,1.953-6.946,5.861-6.946,5.861s1.736,5.861,0.651,7.163c-1.085,1.302-4.124,0-4.775-0.868
					c-0.651-0.868-4.992-5.427-4.992-5.427l-7.597,2.388c0,0-5.861-12.372-5.426-17.582c0.434-5.209,3.473-11.721,6.729-13.023
					c3.256-1.302,5.426-3.039,5.426-3.039s2.171-7.814,4.341-10.202C128.035,262.714,130.422,265.101,130.639,267.923z"/>
			</g>
		</g>
		<g>
			<path style="fill:#92E3A9;stroke:#263238;stroke-linejoin:round;stroke-miterlimit:10;" d="M120.852,303.298l23.998,37.84
				c0.512,0.808,0.3,1.875-0.481,2.426l-16.387,11.546c-0.88,0.62-2.104,0.33-2.613-0.618l-20.357-37.963
				c-0.391-0.729-0.232-1.631,0.383-2.182l12.746-11.423C118.966,302.184,120.258,302.362,120.852,303.298z"/>
			<g>
				<path style="fill:#FFFFFF;stroke:#263238;stroke-linejoin:round;stroke-miterlimit:10;" d="M141.981,341.531
					c0,0,0.736,4.417,2.208,4.601c1.472,0.184,2.761-3.313,2.761-3.313s-2.577-7.914-3.129-8.282
					c-0.552-0.368-4.417-6.809-5.521-7.914c-1.104-1.104-2.945-1.472-2.945-1.472s-4.233-4.785-5.337-4.969
					c-1.104-0.184-5.521,2.577-5.521,2.577s-3.167-8.633-4.639-10.473c-1.472-1.84-5.299-4.25-5.483-2.042
					c-0.184,2.208,2.7,6.915,3.988,12.62s1.533,9.648,0.981,13.697c-0.552,4.049-1.104,9.386-0.184,12.699
					c0.92,3.313,7.177,19.14,7.177,19.14l0.368,3.129l14.171,2.577c0,0,3.497-8.098,3.313-10.674
					c-0.184-2.577-4.785-19.324-4.785-19.324l0.736-2.945L141.981,341.531z"/>
				<path style="fill:none;stroke:#263238;stroke-linejoin:round;stroke-miterlimit:10;" d="M143.822,334.538
					c0,0-2.576-2.945-4.233-1.84c-1.656,1.104-5.153,7.362-5.521,7.914s-1.288,3.681-1.288,4.785"/>
				<path style="fill:none;stroke:#263238;stroke-linejoin:round;stroke-miterlimit:10;" d="M135.356,325.152
					c0,0-6.073,10.49-6.809,11.962c-0.736,1.472-2.393,4.785-2.208,6.625"/>
				<polygon style="fill:#92E3A9;stroke:#263238;stroke-linejoin:round;stroke-miterlimit:10;" points="132.963,329.201 
					130.019,327.176 128.546,329.384 128.546,337.114 				"/>
				<path style="fill:none;stroke:#263238;stroke-linejoin:round;stroke-miterlimit:10;" d="M124.498,322.759
					c0,0-2.024,0-2.393,2.761c-0.368,2.761-0.92,14.355-0.92,14.355"/>
			</g>
			<path style="fill:#92E3A9;" d="M99.648,455.49c0,0,6.368,6.368,10.76,9.882c4.392,3.514,14.713,0.878,18.886-0.878
				c4.172-1.757,7.686-20.642,7.686-20.642s11.419-40.626,11.639-42.163c0.22-1.537,0.659-5.929-1.318-8.345
				c-1.977-2.416-19.544-10.541-20.642-10.76l-6.808,2.635c0,0-6.149,1.537-7.906,5.929c-1.757,4.392-16.69,50.728-16.909,52.265"/>
			<g>
				<path style="fill:#FFFFFF;" d="M145.925,405.734c-5.314,0-7.995,1.658-10.586,3.263c-2.462,1.523-4.788,2.963-9.534,2.963
					c-4.746,0-7.071-1.439-9.533-2.963c-2.367-1.465-4.814-2.971-9.267-3.222c-0.214,0.651-0.43,1.314-0.65,1.985
					c4.284,0.134,6.525,1.49,8.864,2.937c2.592,1.604,5.271,3.263,10.586,3.263c5.315,0,7.995-1.658,10.587-3.263
					c2.462-1.523,4.788-2.963,9.534-2.963c0.389,0,0.738,0.024,1.096,0.042c0.194-0.711,0.374-1.374,0.538-1.983
					C147.042,405.757,146.501,405.734,145.925,405.734z"/>
				<path style="fill:#FFFFFF;" d="M125.804,386.121c2.74,0,4.777-0.443,6.466-1.09c-1.024-0.48-1.969-0.913-2.783-1.277
					c-1.061,0.224-2.253,0.367-3.683,0.367c-0.983,0-1.842-0.074-2.641-0.186l-3.311,1.281
					C121.44,385.761,123.336,386.121,125.804,386.121z"/>
				<path style="fill:#FFFFFF;" d="M135.338,436.835c-2.462,1.523-4.788,2.963-9.534,2.963c-4.746,0-7.071-1.44-9.533-2.963
					c-2.592-1.604-5.272-3.263-10.586-3.263c-3.771,0-6.213,0.836-8.241,1.893c-0.32,1.016-0.616,1.961-0.882,2.817
					c2.318-1.426,4.642-2.711,9.123-2.711c4.745,0,7.071,1.439,9.533,2.963c2.592,1.604,5.271,3.263,10.586,3.263
					c5.315,0,7.995-1.658,10.587-3.263c0.808-0.5,1.609-0.985,2.479-1.419c0.22-0.786,0.454-1.621,0.699-2.497
					C137.931,435.232,136.623,436.04,135.338,436.835z"/>
				<path style="fill:#FFFFFF;" d="M105.686,449.492c4.745,0,7.071,1.439,9.533,2.963c2.592,1.604,5.271,3.263,10.586,3.263
					c4.196,0,6.748-1.034,8.913-2.259c0.267-0.946,0.515-1.881,0.741-2.778c-0.04,0.025-0.08,0.049-0.12,0.074
					c-2.462,1.523-4.788,2.963-9.534,2.963c-4.746,0-7.071-1.44-9.533-2.963c-2.592-1.605-5.272-3.263-10.586-3.263
					c-3.837,0-6.298,0.865-8.347,1.95l0.719,1.884C99.963,450.29,102.154,449.492,105.686,449.492z"/>
				<path style="fill:#FFFFFF;" d="M125.804,400.04c5.315,0,7.995-1.658,10.587-3.263c2.462-1.523,4.788-2.963,9.534-2.963
					c0.629,0,1.21,0.028,1.76,0.076c-0.117-0.191-0.243-0.375-0.384-0.548c-0.312-0.381-1.013-0.905-1.975-1.517
					c-4.916,0.121-7.497,1.709-9.988,3.251c-2.462,1.523-4.788,2.963-9.534,2.963c-4.746,0-7.071-1.439-9.533-2.963
					c-1.448-0.896-2.924-1.809-4.871-2.44c-0.188,0.534-0.409,1.171-0.66,1.906c1.745,0.563,3.098,1.38,4.478,2.235
					C117.81,398.382,120.49,400.04,125.804,400.04z"/>
				<path style="fill:#FFFFFF;" d="M115.218,424.616c2.592,1.604,5.271,3.263,10.586,3.263c5.315,0,7.995-1.658,10.587-3.263
					c1.92-1.188,3.774-2.315,6.74-2.758c0.195-0.701,0.389-1.4,0.583-2.095c-3.897,0.389-6.172,1.789-8.376,3.153
					c-2.462,1.524-4.788,2.963-9.534,2.963c-4.746,0-7.071-1.439-9.533-2.963c-2.592-1.604-5.272-3.263-10.586-3.263
					c-1.221,0-2.297,0.091-3.271,0.245c-0.236,0.732-0.471,1.461-0.704,2.186c1.129-0.264,2.412-0.431,3.975-0.431
					C110.431,421.653,112.756,423.093,115.218,424.616z"/>
			</g>
			<path style="fill:none;stroke:#263238;stroke-linejoin:round;stroke-miterlimit:10;" d="M99.648,455.49
				c0,0,6.368,6.368,10.76,9.882c4.392,3.514,14.713,0.878,18.886-0.878c4.172-1.757,7.686-20.642,7.686-20.642
				s11.419-40.626,11.639-42.163c0.22-1.537,0.659-5.929-1.318-8.345c-1.977-2.416-19.544-10.541-20.642-10.76l-6.808,2.635
				c0,0-6.149,1.537-7.906,5.929c-1.757,4.392-16.69,50.728-16.909,52.265"/>
			<path style="fill:#92E3A9;stroke:#263238;stroke-linejoin:round;stroke-miterlimit:10;" d="M119.851,385.218
				c0,0,1.976-20.203,4.172-20.642c2.196-0.439,17.788,2.416,21.521,5.71c3.733,3.294,2.416,5.051,1.977,7.027
				c-0.439,1.977-3.877,13.726-3.877,13.726S122.267,385.218,119.851,385.218z"/>
		</g>
	</g>
</g>
<g id="Character_2">
	<g>
		<path style="fill:#92E3A9;stroke:#263238;stroke-linejoin:round;stroke-miterlimit:10;" d="M410.486,233.679
			c0,0,15.547-67.369,19.602-79.31c4.056-11.942-5.182-17.574-15.321-21.63c-10.139-4.056-36.05-18.25-36.05-18.25l-40.106,1.352
			c0,0-16.223,13.519-22.531,17.124c-6.309,3.605-19.152,7.661-19.152,20.729c0,13.068-4.506,78.409-4.506,78.409"/>
		<g>
			<rect x="414.15" y="150.15" style="fill:none;" width="11.699" height="11.7"/>
			<rect x="342.15" y="174.15" style="fill:none;" width="11.699" height="11.7"/>
			<rect x="342.15" y="150.15" style="fill:none;" width="11.699" height="11.7"/>
			<rect x="402.15" y="150.15" style="fill:none;" width="11.699" height="11.7"/>
			<rect x="402.15" y="162.15" style="fill:none;" width="11.699" height="11.7"/>
			<rect x="402.15" y="186.15" style="fill:none;" width="11.699" height="11.7"/>
			<rect x="402.15" y="174.15" style="fill:none;" width="11.699" height="11.7"/>
			<rect x="318.15" y="174.15" style="fill:none;" width="11.699" height="11.7"/>
			<rect x="378.15" y="126.15" style="fill:none;" width="11.699" height="11.7"/>
			<rect x="330.15" y="162.15" style="fill:none;" width="11.699" height="11.7"/>
			<rect x="330.15" y="174.15" style="fill:none;" width="11.699" height="11.7"/>
			<rect x="342.15" y="198.15" style="fill:none;" width="11.699" height="11.7"/>
			<rect x="330.15" y="186.15" style="fill:none;" width="11.699" height="11.7"/>
			<rect x="318.15" y="162.15" style="fill:none;" width="11.699" height="11.7"/>
			<polygon style="fill:none;" points="329.85,215.75 329.85,210.15 318.15,210.15 318.15,215.75 318.15,216 318.15,216.25 
				318.15,221.85 329.85,221.85 329.85,216.25 329.85,216 			"/>
			<rect x="366.15" y="198.15" style="fill:none;" width="11.699" height="11.7"/>
			<rect x="366.15" y="186.15" style="fill:none;" width="11.699" height="11.7"/>
			<rect x="330.15" y="150.15" style="fill:none;" width="11.699" height="11.7"/>
			<rect x="402.15" y="198.15" style="fill:none;" width="11.699" height="11.7"/>
			<rect x="366.15" y="162.15" style="fill:none;" width="11.699" height="11.7"/>
			<rect x="318.15" y="198.15" style="fill:none;" width="11.699" height="11.7"/>
			<polygon style="fill:none;" points="360,173.85 360.25,173.85 365.85,173.85 365.85,162.15 360.25,162.15 360,162.15 
				359.75,162.15 354.15,162.15 354.15,173.85 359.75,173.85 			"/>
			<rect x="378.15" y="174.15" style="fill:none;" width="11.699" height="11.7"/>
			<rect x="378.15" y="150.15" style="fill:none;" width="11.699" height="11.7"/>
			<rect x="366.15" y="150.15" style="fill:none;" width="11.699" height="11.7"/>
			<rect x="378.15" y="198.15" style="fill:none;" width="11.699" height="11.7"/>
			<rect x="318.15" y="186.15" style="fill:none;" width="11.699" height="11.7"/>
			<polygon style="fill:none;" points="360,161.85 360.25,161.85 365.85,161.85 365.85,150.15 360.25,150.15 360,150.15 
				359.75,150.15 354.15,150.15 354.15,161.85 359.75,161.85 			"/>
			<polygon style="fill:none;" points="402.15,149.85 413.85,149.85 413.85,144.25 413.85,144 413.85,143.75 413.85,138.15 
				402.15,138.15 402.15,143.75 402.15,144 402.15,144.25 			"/>
			<rect x="342.15" y="162.15" style="fill:none;" width="11.699" height="11.7"/>
			<polygon style="fill:none;" points="360,185.85 360.25,185.85 365.85,185.85 365.85,174.15 360.25,174.15 360,174.15 
				359.75,174.15 354.15,174.15 354.15,185.85 359.75,185.85 			"/>
			<polygon style="fill:none;" points="360,209.85 360.25,209.85 365.85,209.85 365.85,198.15 360.25,198.15 360,198.15 
				359.75,198.15 354.15,198.15 354.15,209.85 359.75,209.85 			"/>
			<rect x="378.15" y="162.15" style="fill:none;" width="11.699" height="11.7"/>
			<polygon style="fill:none;" points="360,197.85 360.25,197.85 365.85,197.85 365.85,186.15 360.25,186.15 360,186.15 
				359.75,186.15 354.15,186.15 354.15,197.85 359.75,197.85 			"/>
			<rect x="378.15" y="186.15" style="fill:none;" width="11.699" height="11.7"/>
			<rect x="366.15" y="174.15" style="fill:none;" width="11.699" height="11.7"/>
			<polygon style="fill:none;" points="305.85,216.25 305.85,216 305.85,215.75 305.85,210.15 294.15,210.15 294.15,215.75 
				294.15,216 294.15,216.25 294.15,221.85 305.85,221.85 			"/>
			<polygon style="fill:none;" points="354.15,149.85 359.75,149.85 360,149.85 360.25,149.85 365.85,149.85 365.85,144.25 
				365.85,144 365.85,143.75 365.85,138.15 360.25,138.15 360,138.15 359.75,138.15 354.15,138.15 354.15,143.75 354.15,144 
				354.15,144.25 			"/>
			<polygon style="fill:none;" points="360,137.85 360.25,137.85 365.85,137.85 365.85,126.15 360.25,126.15 360,126.15 
				359.75,126.15 354.15,126.15 354.15,137.85 359.75,137.85 			"/>
			<polygon style="fill:none;" points="306.15,221.85 317.85,221.85 317.85,216.25 317.85,216 317.85,215.75 317.85,210.15 
				306.15,210.15 306.15,215.75 306.15,216 306.15,216.25 			"/>
			<rect x="342.15" y="126.15" style="fill:none;" width="11.699" height="11.7"/>
			<rect x="390.15" y="150.15" style="fill:none;" width="11.699" height="11.7"/>
			<polygon style="fill:none;" points="378.15,149.85 389.85,149.85 389.85,144.25 389.85,144 389.85,143.75 389.85,138.15 
				378.15,138.15 378.15,143.75 378.15,144 378.15,144.25 			"/>
			<polygon style="fill:none;" points="390.15,144 390.15,144.25 390.15,149.85 401.85,149.85 401.85,144.25 401.85,144 
				401.85,143.75 401.85,138.15 390.15,138.15 390.15,143.75 			"/>
			<rect x="366.15" y="126.15" style="fill:none;" width="11.699" height="11.7"/>
			<polygon style="fill:none;" points="366.15,143.75 366.15,144 366.15,144.25 366.15,149.85 377.85,149.85 377.85,144.25 
				377.85,144 377.85,143.75 377.85,138.15 366.15,138.15 			"/>
			<polygon style="fill:none;" points="342.15,143.75 342.15,144 342.15,144.25 342.15,149.85 353.85,149.85 353.85,144.25 
				353.85,144 353.85,143.75 353.85,138.15 342.15,138.15 			"/>
			<rect x="306.15" y="162.15" style="fill:none;" width="11.699" height="11.7"/>
			<rect x="306.15" y="174.15" style="fill:none;" width="11.699" height="11.7"/>
			<rect x="306.15" y="186.15" style="fill:none;" width="11.699" height="11.7"/>
			<rect x="306.15" y="150.15" style="fill:none;" width="11.699" height="11.7"/>
			<polygon style="fill:none;" points="330.15,149.85 341.85,149.85 341.85,144.25 341.85,144 341.85,143.75 341.85,138.15 
				330.15,138.15 330.15,143.75 330.15,144 330.15,144.25 			"/>
			<rect x="318.15" y="150.15" style="fill:none;" width="11.699" height="11.7"/>
			<polygon style="fill:none;" points="329.85,144 329.85,143.75 329.85,138.15 318.15,138.15 318.15,143.75 318.15,144 
				318.15,144.25 318.15,149.85 329.85,149.85 329.85,144.25 			"/>
			<rect x="306.15" y="198.15" style="fill:none;" width="11.699" height="11.7"/>
			<rect x="330.15" y="126.15" style="fill:none;" width="11.699" height="11.7"/>
			<polygon style="fill:none;" points="365.85,216 365.85,215.75 365.85,210.15 360.25,210.15 360,210.15 359.75,210.15 
				354.15,210.15 354.15,215.75 354.15,216 354.15,216.25 354.15,221.85 359.75,221.85 360,221.85 360.25,221.85 365.85,221.85 
				365.85,216.25 			"/>
			<polygon style="fill:none;" points="353.85,215.75 353.85,210.15 342.15,210.15 342.15,215.75 342.15,216 342.15,216.25 
				342.15,221.85 353.85,221.85 353.85,216.25 353.85,216 			"/>
			<rect x="390.15" y="162.15" style="fill:none;" width="11.699" height="11.7"/>
			<polygon style="fill:none;" points="389.85,216 389.85,215.75 389.85,210.15 378.15,210.15 378.15,215.75 378.15,216 
				378.15,216.25 378.15,221.85 389.85,221.85 389.85,216.25 			"/>
			<polygon style="fill:none;" points="341.85,216 341.85,215.75 341.85,210.15 330.15,210.15 330.15,215.75 330.15,216 
				330.15,216.25 330.15,221.85 341.85,221.85 341.85,216.25 			"/>
			<rect x="330.15" y="198.15" style="fill:none;" width="11.699" height="11.7"/>
			<polygon style="fill:none;" points="377.85,215.75 377.85,210.15 366.15,210.15 366.15,215.75 366.15,216 366.15,216.25 
				366.15,221.85 377.85,221.85 377.85,216.25 377.85,216 			"/>
			<polygon style="fill:none;" points="390.15,215.75 390.15,216 390.15,216.25 390.15,221.85 401.85,221.85 401.85,216.25 
				401.85,216 401.85,215.75 401.85,210.15 390.15,210.15 			"/>
			<rect x="390.15" y="198.15" style="fill:none;" width="11.699" height="11.7"/>
			<rect x="390.15" y="174.15" style="fill:none;" width="11.699" height="11.7"/>
			<rect x="390.15" y="186.15" style="fill:none;" width="11.699" height="11.7"/>
			<rect x="342.15" y="186.15" style="fill:none;" width="11.699" height="11.7"/>
			<g>
				<rect x="365.85" y="126.15" style="fill:#263238;" width="0.301" height="11.7"/>
				<polygon style="fill:#263238;" points="366.15,114.911 365.85,114.922 365.85,125.85 366.15,125.85 				"/>
				<polygon style="fill:#263238;" points="366.15,143.75 366.15,138.15 365.85,138.15 365.85,143.75 365.85,144 366.15,144 				"/>
				<path style="fill:#263238;" d="M390.15,120.625c-0.102-0.054-0.2-0.106-0.301-0.159v5.384h0.301V120.625z"/>
				<rect x="389.85" y="126.15" style="fill:#263238;" width="0.301" height="11.7"/>
				<polygon style="fill:#263238;" points="389.85,144 390.15,144 390.15,143.75 390.15,138.15 389.85,138.15 389.85,143.75 				"/>
				<polygon style="fill:#263238;" points="413.85,143.75 413.85,144 414.15,144 414.15,143.75 414.15,138.15 413.85,138.15 				"/>
				<path style="fill:#263238;" d="M414.15,132.485c-0.101-0.042-0.197-0.08-0.301-0.124v5.489h0.301V132.485z"/>
				<polygon style="fill:#263238;" points="378.15,137.85 378.15,138.15 389.85,138.15 390.15,138.15 401.85,138.15 401.85,137.85 
					390.15,137.85 389.85,137.85 				"/>
				<path style="fill:#263238;" d="M413.85,138.15h0.301h10.9c-0.134-0.101-0.271-0.201-0.408-0.3H414.15h-0.301H402.15v0.3H413.85z
					"/>
				<polygon style="fill:#263238;" points="365.85,137.85 360.25,137.85 360.25,138.15 365.85,138.15 366.15,138.15 377.85,138.15 
					377.85,137.85 366.15,137.85 				"/>
				<path style="fill:#263238;" d="M389.85,126.15h0.301h10.658c-0.197-0.1-0.394-0.199-0.591-0.3H390.15h-0.301H378.15v0.3H389.85z
					"/>
				<polygon style="fill:#263238;" points="365.85,126.15 366.15,126.15 377.85,126.15 377.85,125.85 366.15,125.85 365.85,125.85 
					360.25,125.85 360.25,126.15 				"/>
				<polygon style="fill:#263238;" points="377.85,137.85 377.85,138.15 377.85,143.75 377.85,144 378.15,144 378.15,143.75 
					378.15,138.15 378.15,137.85 378.15,126.15 378.15,125.85 378.15,114.507 377.85,114.517 377.85,125.85 377.85,126.15 				"/>
				<path style="fill:#263238;" d="M401.85,143.75V144h0.301v-0.25v-5.6v-0.3v-11.023c-0.1-0.05-0.2-0.1-0.301-0.151v11.174v0.3
					V143.75z"/>
				<path style="fill:#263238;" d="M426.15,143.75v-4.707c-0.101-0.087-0.198-0.176-0.301-0.261v4.969V144h0.301V143.75z"/>
				<rect x="360" y="137.85" style="fill:#263238;" width="0.25" height="0.3"/>
				<rect x="360" y="125.85" style="fill:#263238;" width="0.25" height="0.3"/>
				<rect x="365.85" y="150.15" style="fill:#263238;" width="0.301" height="11.7"/>
				<rect x="365.85" y="144.25" style="fill:#263238;" width="0.301" height="5.6"/>
				<rect x="365.85" y="198.15" style="fill:#263238;" width="0.301" height="11.7"/>
				<polygon style="fill:#263238;" points="365.85,215.75 365.85,216 366.15,216 366.15,215.75 366.15,210.15 365.85,210.15 				"/>
				<rect x="365.85" y="162.15" style="fill:#263238;" width="0.301" height="11.7"/>
				<rect x="365.85" y="186.15" style="fill:#263238;" width="0.301" height="11.7"/>
				<rect x="365.85" y="174.15" style="fill:#263238;" width="0.301" height="11.7"/>
				<rect x="389.85" y="150.15" style="fill:#263238;" width="0.301" height="11.7"/>
				<rect x="389.85" y="198.15" style="fill:#263238;" width="0.301" height="11.7"/>
				<rect x="389.85" y="174.15" style="fill:#263238;" width="0.301" height="11.7"/>
				<rect x="389.85" y="144.25" style="fill:#263238;" width="0.301" height="5.6"/>
				<rect x="389.85" y="162.15" style="fill:#263238;" width="0.301" height="11.7"/>
				<rect x="389.85" y="186.15" style="fill:#263238;" width="0.301" height="11.7"/>
				<polygon style="fill:#263238;" points="389.85,216 390.15,216 390.15,215.75 390.15,210.15 389.85,210.15 389.85,215.75 				"/>
				<rect x="413.85" y="144.25" style="fill:#263238;" width="0.301" height="5.6"/>
				<rect x="413.85" y="198.15" style="fill:#263238;" width="0.301" height="11.7"/>
				<rect x="413.85" y="162.15" style="fill:#263238;" width="0.301" height="11.7"/>
				<rect x="413.85" y="150.15" style="fill:#263238;" width="0.301" height="11.7"/>
				<rect x="413.85" y="174.15" style="fill:#263238;" width="0.301" height="11.7"/>
				<polygon style="fill:#263238;" points="413.85,215.75 413.85,216 414.15,216 414.15,215.75 414.15,210.15 413.85,210.15 				"/>
				<rect x="413.85" y="186.15" style="fill:#263238;" width="0.301" height="11.7"/>
				<path style="fill:#263238;" d="M402.15,209.85v0.3h11.699h0.301h1.843c0.023-0.099,0.047-0.2,0.071-0.3h-1.914h-0.301H402.15z"
					/>
				<polygon style="fill:#263238;" points="366.15,209.85 365.85,209.85 360.25,209.85 360.25,210.15 365.85,210.15 366.15,210.15 
					377.85,210.15 377.85,209.85 				"/>
				<polygon style="fill:#263238;" points="389.85,209.85 378.15,209.85 378.15,210.15 389.85,210.15 390.15,210.15 401.85,210.15 
					401.85,209.85 390.15,209.85 				"/>
				<path style="fill:#263238;" d="M402.15,185.85v0.3h11.699h0.301h7.602c0.024-0.1,0.049-0.2,0.073-0.3h-7.675h-0.301H402.15z"/>
				<polygon style="fill:#263238;" points="365.85,185.85 360.25,185.85 360.25,186.15 365.85,186.15 366.15,186.15 377.85,186.15 
					377.85,185.85 366.15,185.85 				"/>
				<polygon style="fill:#263238;" points="389.85,185.85 378.15,185.85 378.15,186.15 389.85,186.15 390.15,186.15 401.85,186.15 
					401.85,185.85 390.15,185.85 				"/>
				<path style="fill:#263238;" d="M427.826,162.15c0.027-0.102,0.054-0.2,0.081-0.3h-1.757v0.3H427.826z"/>
				<polygon style="fill:#263238;" points="414.15,161.85 413.85,161.85 402.15,161.85 402.15,162.15 413.85,162.15 414.15,162.15 
					425.85,162.15 425.85,161.85 				"/>
				<polygon style="fill:#263238;" points="365.85,161.85 360.25,161.85 360.25,162.15 365.85,162.15 366.15,162.15 377.85,162.15 
					377.85,161.85 366.15,161.85 				"/>
				<polygon style="fill:#263238;" points="389.85,161.85 378.15,161.85 378.15,162.15 389.85,162.15 390.15,162.15 401.85,162.15 
					401.85,161.85 390.15,161.85 				"/>
				<path style="fill:#263238;" d="M402.15,197.85v0.3h11.699h0.301h4.701c0.024-0.1,0.048-0.2,0.072-0.3h-4.772h-0.301H402.15z"/>
				<polygon style="fill:#263238;" points="365.85,197.85 360.25,197.85 360.25,198.15 365.85,198.15 366.15,198.15 377.85,198.15 
					377.85,197.85 366.15,197.85 				"/>
				<polygon style="fill:#263238;" points="389.85,197.85 378.15,197.85 378.15,198.15 389.85,198.15 390.15,198.15 401.85,198.15 
					401.85,197.85 390.15,197.85 				"/>
				<path style="fill:#263238;" d="M402.15,173.85v0.3h11.699h0.301h10.571c0.025-0.1,0.05-0.2,0.075-0.3H414.15h-0.301H402.15z"/>
				<polygon style="fill:#263238;" points="365.85,173.85 360.25,173.85 360.25,174.15 365.85,174.15 366.15,174.15 377.85,174.15 
					377.85,173.85 366.15,173.85 				"/>
				<polygon style="fill:#263238;" points="389.85,173.85 378.15,173.85 378.15,174.15 389.85,174.15 390.15,174.15 401.85,174.15 
					401.85,173.85 390.15,173.85 				"/>
				<polygon style="fill:#263238;" points="365.85,150.15 366.15,150.15 377.85,150.15 377.85,149.85 366.15,149.85 365.85,149.85 
					360.25,149.85 360.25,150.15 				"/>
				<path style="fill:#263238;" d="M431.012,150.15c0.009-0.102,0.01-0.199,0.016-0.3h-4.878v0.3H431.012z"/>
				<polygon style="fill:#263238;" points="402.15,149.85 402.15,150.15 413.85,150.15 414.15,150.15 425.85,150.15 425.85,149.85 
					414.15,149.85 413.85,149.85 				"/>
				<polygon style="fill:#263238;" points="389.85,149.85 378.15,149.85 378.15,150.15 389.85,150.15 390.15,150.15 401.85,150.15 
					401.85,149.85 390.15,149.85 				"/>
				<polygon style="fill:#263238;" points="377.85,161.85 377.85,162.15 377.85,173.85 377.85,174.15 377.85,185.85 377.85,186.15 
					377.85,197.85 377.85,198.15 377.85,209.85 377.85,210.15 377.85,215.75 377.85,216 378.15,216 378.15,215.75 378.15,210.15 
					378.15,209.85 378.15,198.15 378.15,197.85 378.15,186.15 378.15,185.85 378.15,174.15 378.15,173.85 378.15,162.15 
					378.15,161.85 378.15,150.15 378.15,149.85 378.15,144.25 377.85,144.25 377.85,149.85 377.85,150.15 				"/>
				<polygon style="fill:#263238;" points="402.15,198.15 402.15,197.85 402.15,186.15 402.15,185.85 402.15,174.15 402.15,173.85 
					402.15,162.15 402.15,161.85 402.15,150.15 402.15,149.85 402.15,144.25 401.85,144.25 401.85,149.85 401.85,150.15 
					401.85,161.85 401.85,162.15 401.85,173.85 401.85,174.15 401.85,185.85 401.85,186.15 401.85,197.85 401.85,198.15 
					401.85,209.85 401.85,210.15 401.85,215.75 401.85,216 402.15,216 402.15,215.75 402.15,210.15 402.15,209.85 				"/>
				<path style="fill:#263238;" d="M425.85,161.85v0.3v7.55c0.101-0.395,0.202-0.786,0.301-1.172v-6.378v-0.3v-11.7v-0.3v-5.6
					h-0.301v5.6v0.3V161.85z"/>
				<rect x="360" y="209.85" style="fill:#263238;" width="0.25" height="0.3"/>
				<rect x="360" y="185.85" style="fill:#263238;" width="0.25" height="0.3"/>
				<rect x="360" y="161.85" style="fill:#263238;" width="0.25" height="0.3"/>
				<rect x="360" y="197.85" style="fill:#263238;" width="0.25" height="0.3"/>
				<rect x="360" y="173.85" style="fill:#263238;" width="0.25" height="0.3"/>
				<rect x="360" y="149.85" style="fill:#263238;" width="0.25" height="0.3"/>
				<rect x="365.85" y="144" style="fill:#263238;" width="0.301" height="0.25"/>
				<rect x="389.85" y="144" style="fill:#263238;" width="0.301" height="0.25"/>
				<rect x="413.85" y="144" style="fill:#263238;" width="0.301" height="0.25"/>
				<rect x="377.85" y="144" style="fill:#263238;" width="0.301" height="0.25"/>
				<rect x="401.85" y="144" style="fill:#263238;" width="0.301" height="0.25"/>
				<rect x="425.85" y="144" style="fill:#263238;" width="0.301" height="0.25"/>
				
					<rect x="360.533" y="227.467" transform="matrix(0.0133 -0.9999 0.9999 0.0133 133.5363 590.5583)" style="fill:#263238;" width="10.935" height="0.301"/>
				<rect x="365.85" y="216.25" style="fill:#263238;" width="0.301" height="5.6"/>
				<rect x="389.85" y="216.25" style="fill:#263238;" width="0.301" height="5.6"/>
				
					<rect x="384.372" y="227.627" transform="matrix(0.0133 -0.9999 0.9999 0.0133 157.0569 614.7144)" style="fill:#263238;" width="11.255" height="0.301"/>
				<path style="fill:#263238;" d="M413.85,219.249c0.099-0.42,0.199-0.848,0.301-1.281v-1.718h-0.301V219.249z"/>
				<polygon style="fill:#263238;" points="366.15,221.85 365.85,221.85 360.25,221.85 360.25,222.15 365.85,222.15 366.15,222.15 
					377.85,222.15 377.85,221.85 				"/>
				<path style="fill:#263238;" d="M413.17,222.15c0.024-0.101,0.046-0.198,0.07-0.3h-11.09v0.3H413.17z"/>
				<polygon style="fill:#263238;" points="390.15,221.85 389.85,221.85 378.15,221.85 378.15,222.15 389.85,222.15 390.15,222.15 
					401.85,222.15 401.85,221.85 				"/>
				<polygon style="fill:#263238;" points="378.15,216.25 377.85,216.25 377.85,221.85 377.85,222.15 377.85,233.243 
					378.15,233.247 378.15,222.15 378.15,221.85 				"/>
				<polygon style="fill:#263238;" points="401.85,221.85 401.85,222.15 401.85,233.564 402.15,233.568 402.15,222.15 
					402.15,221.85 402.15,216.25 401.85,216.25 				"/>
				<rect x="360" y="221.85" style="fill:#263238;" width="0.25" height="0.3"/>
				<rect x="365.85" y="216" style="fill:#263238;" width="0.301" height="0.25"/>
				<rect x="389.85" y="216" style="fill:#263238;" width="0.301" height="0.25"/>
				<rect x="413.85" y="216" style="fill:#263238;" width="0.301" height="0.25"/>
				<rect x="377.85" y="216" style="fill:#263238;" width="0.301" height="0.25"/>
				<rect x="401.85" y="216" style="fill:#263238;" width="0.301" height="0.25"/>
				<path style="fill:#263238;" d="M318.15,131.67c-0.103,0.068-0.201,0.131-0.301,0.197v5.983h0.301V131.67z"/>
				<polygon style="fill:#263238;" points="318.15,143.75 318.15,138.15 317.85,138.15 317.85,143.75 317.85,144 318.15,144 				"/>
				<polygon style="fill:#263238;" points="342.15,115.72 341.85,115.731 341.85,125.85 342.15,125.85 				"/>
				<rect x="341.85" y="126.15" style="fill:#263238;" width="0.301" height="11.7"/>
				<polygon style="fill:#263238;" points="342.15,143.75 342.15,138.15 341.85,138.15 341.85,143.75 341.85,144 342.15,144 				"/>
				<path style="fill:#263238;" d="M329.85,138.15v-0.3H318.15h-0.301h-10.906c-0.161,0.099-0.322,0.198-0.482,0.3h11.387h0.301
					H329.85z"/>
				<polygon style="fill:#263238;" points="360,138.15 360,137.85 359.75,137.85 354.15,137.85 354.15,138.15 359.75,138.15 				"/>
				<polygon style="fill:#263238;" points="342.15,138.15 353.85,138.15 353.85,137.85 342.15,137.85 341.85,137.85 330.15,137.85 
					330.15,138.15 341.85,138.15 				"/>
				<path style="fill:#263238;" d="M326.125,125.85c-0.13,0.1-0.26,0.2-0.39,0.3h4.114v-0.3H326.125z"/>
				<polygon style="fill:#263238;" points="341.85,126.15 342.15,126.15 353.85,126.15 353.85,125.85 342.15,125.85 341.85,125.85 
					330.15,125.85 330.15,126.15 				"/>
				<polygon style="fill:#263238;" points="359.75,126.15 360,126.15 360,125.85 359.75,125.85 354.15,125.85 354.15,126.15 				"/>
				<path style="fill:#263238;" d="M306.15,143.75v-5.395c-0.1,0.066-0.201,0.131-0.301,0.198v5.197V144h0.301V143.75z"/>
				<path style="fill:#263238;" d="M329.85,143.75V144h0.301v-0.25v-5.6v-0.3v-11.7v-0.3v-3.148c-0.1,0.08-0.2,0.159-0.301,0.239
					v2.91v0.3v11.7v0.3V143.75z"/>
				<polygon style="fill:#263238;" points="353.85,137.85 353.85,138.15 353.85,143.75 353.85,144 354.15,144 354.15,143.75 
					354.15,138.15 354.15,137.85 354.15,126.15 354.15,125.85 354.15,115.316 353.85,115.326 353.85,125.85 353.85,126.15 				"/>
				<path style="fill:#263238;" d="M294.15,206.058c-0.083,1.29-0.165,2.553-0.245,3.792h0.245V206.058z"/>
				<path style="fill:#263238;" d="M294.15,215.75v-5.6h-0.264c-0.012,0.186-0.024,0.375-0.036,0.559v5.041V216h0.301V215.75z"/>
				<rect x="317.85" y="198.15" style="fill:#263238;" width="0.301" height="11.7"/>
				<rect x="317.85" y="174.15" style="fill:#263238;" width="0.301" height="11.7"/>
				<rect x="317.85" y="144.25" style="fill:#263238;" width="0.301" height="5.6"/>
				<rect x="317.85" y="186.15" style="fill:#263238;" width="0.301" height="11.7"/>
				<rect x="317.85" y="162.15" style="fill:#263238;" width="0.301" height="11.7"/>
				<rect x="317.85" y="150.15" style="fill:#263238;" width="0.301" height="11.7"/>
				<polygon style="fill:#263238;" points="318.15,215.75 318.15,210.15 317.85,210.15 317.85,215.75 317.85,216 318.15,216 				"/>
				<rect x="341.85" y="186.15" style="fill:#263238;" width="0.301" height="11.7"/>
				<rect x="341.85" y="144.25" style="fill:#263238;" width="0.301" height="5.6"/>
				<rect x="341.85" y="162.15" style="fill:#263238;" width="0.301" height="11.7"/>
				<rect x="341.85" y="198.15" style="fill:#263238;" width="0.301" height="11.7"/>
				<rect x="341.85" y="150.15" style="fill:#263238;" width="0.301" height="11.7"/>
				<rect x="341.85" y="174.15" style="fill:#263238;" width="0.301" height="11.7"/>
				<polygon style="fill:#263238;" points="341.85,215.75 341.85,216 342.15,216 342.15,215.75 342.15,210.15 341.85,210.15 				"/>
				<path style="fill:#263238;" d="M305.85,210.15v-0.3H294.15h-0.245c-0.007,0.1-0.013,0.2-0.02,0.3h0.264H305.85z"/>
				<polygon style="fill:#263238;" points="359.75,209.85 354.15,209.85 354.15,210.15 359.75,210.15 360,210.15 360,209.85 				"/>
				<polygon style="fill:#263238;" points="318.15,210.15 329.85,210.15 329.85,209.85 318.15,209.85 317.85,209.85 306.15,209.85 
					306.15,210.15 317.85,210.15 				"/>
				<polygon style="fill:#263238;" points="342.15,210.15 353.85,210.15 353.85,209.85 342.15,209.85 341.85,209.85 330.15,209.85 
					330.15,210.15 341.85,210.15 				"/>
				<path style="fill:#263238;" d="M295.407,185.85c-0.006,0.1-0.012,0.2-0.018,0.3h10.46v-0.3H295.407z"/>
				<polygon style="fill:#263238;" points="360,186.15 360,185.85 359.75,185.85 354.15,185.85 354.15,186.15 359.75,186.15 				"/>
				<polygon style="fill:#263238;" points="318.15,186.15 329.85,186.15 329.85,185.85 318.15,185.85 317.85,185.85 306.15,185.85 
					306.15,186.15 317.85,186.15 				"/>
				<polygon style="fill:#263238;" points="342.15,186.15 353.85,186.15 353.85,185.85 342.15,185.85 341.85,185.85 330.15,185.85 
					330.15,186.15 341.85,186.15 				"/>
				<path style="fill:#263238;" d="M296.691,161.85c-0.004,0.099-0.008,0.2-0.013,0.3h9.171v-0.3H296.691z"/>
				<polygon style="fill:#263238;" points="360,162.15 360,161.85 359.75,161.85 354.15,161.85 354.15,162.15 359.75,162.15 				"/>
				<polygon style="fill:#263238;" points="318.15,162.15 329.85,162.15 329.85,161.85 318.15,161.85 317.85,161.85 306.15,161.85 
					306.15,162.15 317.85,162.15 				"/>
				<polygon style="fill:#263238;" points="342.15,162.15 353.85,162.15 353.85,161.85 342.15,161.85 341.85,161.85 330.15,161.85 
					330.15,162.15 341.85,162.15 				"/>
				<path style="fill:#263238;" d="M294.672,197.85c-0.006,0.1-0.013,0.2-0.019,0.3h11.197v-0.3H294.672z"/>
				<polygon style="fill:#263238;" points="360,198.15 360,197.85 359.75,197.85 354.15,197.85 354.15,198.15 359.75,198.15 				"/>
				<polygon style="fill:#263238;" points="318.15,198.15 329.85,198.15 329.85,197.85 318.15,197.85 317.85,197.85 306.15,197.85 
					306.15,198.15 317.85,198.15 				"/>
				<polygon style="fill:#263238;" points="342.15,198.15 353.85,198.15 353.85,197.85 342.15,197.85 341.85,197.85 330.15,197.85 
					330.15,198.15 341.85,198.15 				"/>
				<path style="fill:#263238;" d="M296.095,173.85c-0.005,0.1-0.011,0.199-0.016,0.3h9.771v-0.3H296.095z"/>
				<polygon style="fill:#263238;" points="360,174.15 360,173.85 359.75,173.85 354.15,173.85 354.15,174.15 359.75,174.15 				"/>
				<polygon style="fill:#263238;" points="318.15,174.15 329.85,174.15 329.85,173.85 318.15,173.85 317.85,173.85 306.15,173.85 
					306.15,174.15 317.85,174.15 				"/>
				<polygon style="fill:#263238;" points="342.15,174.15 353.85,174.15 353.85,173.85 342.15,173.85 341.85,173.85 330.15,173.85 
					330.15,174.15 341.85,174.15 				"/>
				<polygon style="fill:#263238;" points="359.75,150.15 360,150.15 360,149.85 359.75,149.85 354.15,149.85 354.15,150.15 				"/>
				<path style="fill:#263238;" d="M297.342,149.85c-0.022,0.101-0.048,0.198-0.069,0.3h8.576v-0.3H297.342z"/>
				<polygon style="fill:#263238;" points="317.85,150.15 318.15,150.15 329.85,150.15 329.85,149.85 318.15,149.85 317.85,149.85 
					306.15,149.85 306.15,150.15 				"/>
				<polygon style="fill:#263238;" points="342.15,150.15 353.85,150.15 353.85,149.85 342.15,149.85 341.85,149.85 330.15,149.85 
					330.15,150.15 341.85,150.15 				"/>
				<polygon style="fill:#263238;" points="305.85,215.75 305.85,216 306.15,216 306.15,215.75 306.15,210.15 306.15,209.85 
					306.15,198.15 306.15,197.85 306.15,186.15 306.15,185.85 306.15,174.15 306.15,173.85 306.15,162.15 306.15,161.85 
					306.15,150.15 306.15,149.85 306.15,144.25 305.85,144.25 305.85,149.85 305.85,150.15 305.85,161.85 305.85,162.15 
					305.85,173.85 305.85,174.15 305.85,185.85 305.85,186.15 305.85,197.85 305.85,198.15 305.85,209.85 305.85,210.15 				"/>
				<polygon style="fill:#263238;" points="329.85,162.15 329.85,173.85 329.85,174.15 329.85,185.85 329.85,186.15 329.85,197.85 
					329.85,198.15 329.85,209.85 329.85,210.15 329.85,215.75 329.85,216 330.15,216 330.15,215.75 330.15,210.15 330.15,209.85 
					330.15,198.15 330.15,197.85 330.15,186.15 330.15,185.85 330.15,174.15 330.15,173.85 330.15,162.15 330.15,161.85 
					330.15,150.15 330.15,149.85 330.15,144.25 329.85,144.25 329.85,149.85 329.85,150.15 329.85,161.85 				"/>
				<polygon style="fill:#263238;" points="353.85,161.85 353.85,162.15 353.85,173.85 353.85,174.15 353.85,185.85 353.85,186.15 
					353.85,197.85 353.85,198.15 353.85,209.85 353.85,210.15 353.85,215.75 353.85,216 354.15,216 354.15,215.75 354.15,210.15 
					354.15,209.85 354.15,198.15 354.15,197.85 354.15,186.15 354.15,185.85 354.15,174.15 354.15,173.85 354.15,162.15 
					354.15,161.85 354.15,150.15 354.15,149.85 354.15,144.25 353.85,144.25 353.85,149.85 353.85,150.15 				"/>
				<rect x="317.85" y="144" style="fill:#263238;" width="0.301" height="0.25"/>
				<rect x="341.85" y="144" style="fill:#263238;" width="0.301" height="0.25"/>
				<rect x="305.85" y="144" style="fill:#263238;" width="0.301" height="0.25"/>
				<rect x="329.85" y="144" style="fill:#263238;" width="0.301" height="0.25"/>
				<rect x="353.85" y="144" style="fill:#263238;" width="0.301" height="0.25"/>
				<rect x="293.85" y="216.25" style="fill:#263238;" width="0.301" height="5.6"/>
				
					<rect x="289.014" y="226.986" transform="matrix(0.0136 -0.9999 0.9999 0.0136 62.8778 518.0134)" style="fill:#263238;" width="9.973" height="0.301"/>
				
					<rect x="312.853" y="227.146" transform="matrix(0.0136 -0.9999 0.9999 0.0136 86.3904 542.1693)" style="fill:#263238;" width="10.293" height="0.301"/>
				<rect x="317.85" y="216.25" style="fill:#263238;" width="0.301" height="5.6"/>
				<rect x="341.85" y="216.25" style="fill:#263238;" width="0.301" height="5.6"/>
				
					<rect x="336.693" y="227.307" transform="matrix(0.0133 -0.9999 0.9999 0.0133 110.0157 566.4023)" style="fill:#263238;" width="10.614" height="0.301"/>
				<polygon style="fill:#263238;" points="318.15,221.85 317.85,221.85 306.15,221.85 306.15,222.15 317.85,222.15 318.15,222.15 
					329.85,222.15 329.85,221.85 				"/>
				<path style="fill:#263238;" d="M294.15,221.85h-0.301h-0.734c-0.007,0.102-0.013,0.199-0.02,0.3h0.754h0.301h11.699v-0.3H294.15
					z"/>
				<polygon style="fill:#263238;" points="342.15,221.85 341.85,221.85 330.15,221.85 330.15,222.15 341.85,222.15 342.15,222.15 
					353.85,222.15 353.85,221.85 				"/>
				<polygon style="fill:#263238;" points="359.75,221.85 354.15,221.85 354.15,222.15 359.75,222.15 360,222.15 360,221.85 				"/>
				<polygon style="fill:#263238;" points="306.15,216.25 305.85,216.25 305.85,221.85 305.85,222.15 305.85,232.281 
					306.15,232.285 306.15,222.15 306.15,221.85 				"/>
				<polygon style="fill:#263238;" points="330.15,216.25 329.85,216.25 329.85,221.85 329.85,222.15 329.85,232.602 
					330.15,232.606 330.15,222.15 330.15,221.85 				"/>
				<polygon style="fill:#263238;" points="354.15,216.25 353.85,216.25 353.85,221.85 353.85,222.15 353.85,232.922 
					354.15,232.926 354.15,222.15 354.15,221.85 				"/>
				<rect x="293.85" y="216" style="fill:#263238;" width="0.301" height="0.25"/>
				<rect x="317.85" y="216" style="fill:#263238;" width="0.301" height="0.25"/>
				<rect x="341.85" y="216" style="fill:#263238;" width="0.301" height="0.25"/>
				<rect x="305.85" y="216" style="fill:#263238;" width="0.301" height="0.25"/>
				<rect x="329.85" y="216" style="fill:#263238;" width="0.301" height="0.25"/>
				<rect x="353.85" y="216" style="fill:#263238;" width="0.301" height="0.25"/>
			</g>
		</g>
		<g>
			
				<line style="fill:none;stroke:#263238;stroke-linejoin:round;stroke-miterlimit:10;" x1="398.788" y1="147.351" x2="390.432" y2="160.264"/>
			<path style="fill:none;stroke:#263238;stroke-linejoin:round;stroke-miterlimit:10;" d="M398.028,142.287
				c0,0-3.798,3.545-4.811,11.647"/>
		</g>
		<path style="fill:#FFFFFF;stroke:#263238;stroke-linejoin:round;stroke-miterlimit:10;" d="M372.408,104.349l6.309,10.139
			c0,0-5.408,10.364-7.435,13.519c-2.028,3.154-16.448,12.167-17.349,12.617c-0.901,0.451-5.633-11.491-5.633-11.491
			S364.748,120.797,372.408,104.349z"/>
		<path style="fill:none;stroke:#263238;stroke-linejoin:round;stroke-miterlimit:10;" d="M307.443,183.409
			c-1.408,16.16-3.777,41.039-5.558,48.017"/>
		<path style="fill:none;stroke:#263238;stroke-linejoin:round;stroke-miterlimit:10;" d="M308.645,169.014
			c0,0-0.252,3.22-0.672,8.219"/>
		<path style="fill:#FFFFFF;stroke:#263238;stroke-linejoin:round;stroke-miterlimit:10;" d="M344.244,126.204l-5.182,10.364
			c0,0-6.083-3.83-6.985-11.942c-0.901-8.111,6.083-14.195,6.083-14.195L344.244,126.204z"/>
		<path style="fill:#FFFFFF;stroke:#263238;stroke-linejoin:round;stroke-miterlimit:10;" d="M335.457,103.898
			c0,0,2.253,7.435,2.479,9.688c0.225,2.253,1.577,6.759,6.309,12.618c4.732,5.858,11.491,1.127,17.124-6.084
			c5.633-7.21,7.661-11.266,7.661-11.266l-1.193-20.417C367.836,88.438,354.383,101.645,335.457,103.898z"/>
		<g>
			<path style="fill:#FFFFFF;stroke:#263238;stroke-linejoin:round;stroke-miterlimit:10;" d="M330.87,50.899
				c0,0-4.701,8.931-4.936,11.987c-0.235,3.055,0,3.76,0,5.406c0,1.645-2.82,9.401-2.82,16.217c0,6.816,1.41,16.217,2.82,19.037
				c1.41,2.82,6.346,4.231,10.341,3.526c3.996-0.705,11.282-3.291,17.862-5.171c6.581-1.88,16.687-12.222,16.687-12.222
				s5.171-0.94,8.226-7.051c3.055-6.111-0.235-11.752-0.235-11.752l-4.936-4.231c0,0-6.346-2.585-6.581-5.641
				c-0.235-3.055,7.286-10.106-1.41-15.512C357.193,40.088,336.275,42.438,330.87,50.899z"/>
			<path style="fill:#263238;stroke:#263238;stroke-linejoin:round;stroke-miterlimit:10;" d="M368.475,75.342
				c0,0-4.231,0.705-4.701-1.645c-0.47-2.35,0.47-3.29-0.47-4.936c-0.94-1.645-8.226-3.76-8.461-7.521
				c-0.235-3.761,7.991-7.756,5.641-10.106s-6.816-5.406-15.982-3.526c-9.166,1.88-8.696,4.701-13.632,3.291
				c-4.936-1.41-1.645-7.051-1.645-7.051s-5.641,3.525-3.76-3.055c1.88-6.581,11.752-11.752,16.922-11.752
				c5.171,0,10.341,1.41,10.341,1.41s11.281-2.82,19.038,2.115c7.756,4.936,6.111,9.636,5.406,10.576
				c-0.705,0.94-1.175,2.585-1.175,2.585s8.461,0.705,9.871,8.931c1.41,8.226-2.35,10.106-3.29,11.046
				c-0.94,0.94-1.41,4.466-1.41,4.466l-0.94,4.231c0,0-5.876-4.936-8.226-2.585C369.65,74.167,368.475,75.342,368.475,75.342z"/>
			<path style="fill:none;stroke:#263238;stroke-linejoin:round;stroke-miterlimit:10;" d="M330.635,66.646
				c0,0,1.175,0.47,0.47,3.525s-6.346,10.576-5.406,12.692c0.94,2.115,9.3,3.697,11.65,2.522c2.35-1.175,2.657-4.736,2.657-4.736"/>
			<path style="fill:#263238;stroke:#263238;stroke-linejoin:round;stroke-miterlimit:10;" d="M325.934,103.546
				c-1.226-2.452-2.451-9.879-2.75-16.257c1.367-1.25,3.886-3.059,3.886-3.059s4.851,1.039,7.392,1.386
				c2.541,0.347,4.274-1.155,4.274-1.155s6.122,1.502,8.316,4.505c1.811,2.478,0.869,10.999,0.031,15.075
				c-4.258,1.33-8.222,2.574-10.807,3.03C332.28,107.777,327.344,106.367,325.934,103.546z"/>
			<path style="fill:#FFFFFF;stroke:#263238;stroke-linejoin:round;stroke-miterlimit:10;" d="M331.921,86.309
				c0,0,11.319,1.617,12.59,2.772c1.271,1.155,0.693,5.775,0.116,8.663c-0.578,2.888-7.277,5.66-8.547,4.62
				c-1.271-1.04-0.809-5.891-1.386-6.353c-0.578-0.462-3.696-1.617-4.158,0c-0.462,1.617,0.346,6.122-0.462,6.122
				c-0.809,0-2.772-2.888-4.158-7.508c-1.386-4.62-0.578-6.584,1.155-7.277C328.802,86.656,331.921,86.309,331.921,86.309z"/>
			<path style="fill:none;stroke:#263238;stroke-linejoin:round;stroke-miterlimit:10;" d="M342.099,89.824
				c0,0-7.701,2.962-14.612,0.197"/>
			<path style="fill:#263238;" d="M340.122,73.084c0,1.053,0.543,1.906,1.213,1.906s1.213-0.853,1.213-1.906
				c0-1.052-0.543-1.906-1.213-1.906S340.122,72.032,340.122,73.084z"/>
			<ellipse style="fill:#263238;" cx="328.513" cy="71.063" rx="1.213" ry="1.906"/>
			<path style="fill:none;stroke:#263238;stroke-linejoin:round;stroke-miterlimit:10;" d="M335.848,68.291
				c0,0,5.313-0.924,11.435,0.115c4.088,0.694,5.66,1.848,5.66,1.848l-1.039,7.623c0,0-1.155,1.039-7.392,0.693
				c-6.237-0.347-7.508-0.693-8.778-2.079C334.462,75.105,335.848,68.291,335.848,68.291z"/>
			<path style="fill:none;stroke:#263238;stroke-linejoin:round;stroke-miterlimit:10;" d="M331.112,68.291
				c0,0,0.206-2.009-6.002-2.168c-4.146-0.106-5.91,0.724-5.91,0.724l-0.448,7.681c0,0,0.97,1.011,7.121,2.103
				c2.466,0.438,2.982-1.657,3.968-3.258C331.69,70.37,331.112,68.291,331.112,68.291z"/>
			<path style="fill:none;stroke:#263238;stroke-linejoin:round;stroke-miterlimit:10;" d="M335.848,68.291c0,0-3.119-1.502-4.736,0
				"/>
			<polygon style="fill:#263238;stroke:#263238;stroke-linejoin:round;stroke-miterlimit:10;" points="352.943,70.254 
				371.077,72.102 369.806,73.257 357.794,73.026 356.292,73.835 352.596,73.719 			"/>
			<path style="fill:none;stroke:#263238;stroke-linejoin:round;stroke-miterlimit:10;" d="M349.94,67.251
				c0,0-1.848-2.426-5.429-3.35c-3.581-0.924-6.584-0.116-6.468,0.808"/>
			<path style="fill:none;stroke:#263238;stroke-linejoin:round;stroke-miterlimit:10;" d="M331.228,64.826
				c0,0-1.617-2.772-3.927-2.195"/>
		</g>
		<path style="fill:#92E3A9;stroke:#263238;stroke-linejoin:round;stroke-miterlimit:10;" d="M374.088,73.795l7.66,11.958
			c0.665,1.038,0.422,2.412-0.559,3.159l-26.464,20.156c-1.182,0.901-2.893,0.501-3.554-0.831l-7.053-14.217
			c-0.522-1.053-0.193-2.329,0.773-2.997l25.857-17.897C371.85,72.363,373.365,72.666,374.088,73.795z"/>
		<g>
			<path style="fill:#FFFFFF;stroke:#263238;stroke-linejoin:round;stroke-miterlimit:10;" d="M364.577,132.283
				c0,0-0.148-6.814,0.296-8.443c0.444-1.629,11.85-22.367,12.146-23.107c0.296-0.741-2.074-5.48-2.814-6.369
				c-0.741-0.889-3.555-5.925-3.851-7.554c-0.296-1.629-2.518-0.296-2.518,1.629c0,1.926,1.481,7.258,2.222,8.147
				c0.741,0.889,1.333,3.259,1.333,3.259l-2.962,3.703c0,0-2.962-8.887-3.111-9.48c-0.148-0.592-5.184-3.407-6.369-4.444
				c-1.185-1.037-1.481-1.185-2.37-0.741c-0.889,0.444-1.333,1.777-1.333,1.777s-0.842-0.19-1.731,0.55
				c-0.889,0.741-0.712,1.774-0.861,2.367l0.073,1.379c0,0-1.481-0.296-2.222,0.444c-0.741,0.741-0.741,0.593-0.741,0.593
				s-0.889,1.037,0.296,1.926s3.413,2.189,4.077,3.983c0.663,1.794-2.892,10.533-4.521,16.014
				c-1.629,5.48-2.814,10.517-1.481,12.887c1.333,2.37,4.444,7.851,4.444,7.851L364.577,132.283z"/>
			<path style="fill:none;stroke:#263238;stroke-linejoin:round;stroke-miterlimit:10;" d="M352.728,94.955
				c0,0,6.073,5.184,6.369,6.073c0.296,0.889,0.187,4.884,0.187,4.884"/>
			<path style="fill:none;stroke:#263238;stroke-linejoin:round;stroke-miterlimit:10;" d="M355.246,90.66
				c0,0,6.517,5.629,6.665,6.518c0.148,0.889,2.012,8.032,2.012,8.032"/>
			
				<line style="fill:none;stroke:#263238;stroke-linejoin:round;stroke-miterlimit:10;" x1="370.109" y1="107.037" x2="368.429" y2="103.547"/>
		</g>
		<path style="fill:#92E3A9;stroke:#263238;stroke-linejoin:round;stroke-miterlimit:10;" d="M412.739,198.53
			c-4.732,5.182-18.701,24.109-21.855,24.109c-3.154,0-7.661-4.732-16.448-20.053s-18.25-48.217-18.25-48.217l-7.21-17.124
			l19.377-10.139c0,0,4.056,9.013,4.056,9.689c0,0.676,36.726,48.217,36.726,48.217"/>
		<g>
			<rect x="378.15" y="174.15" style="fill:none;" width="11.699" height="11.7"/>
			<rect x="366.15" y="162.15" style="fill:none;" width="11.699" height="11.7"/>
			<rect x="378.15" y="162.15" style="fill:none;" width="11.699" height="11.7"/>
			<rect x="366.15" y="150.15" style="fill:none;" width="11.699" height="11.7"/>
			<rect x="378.15" y="186.15" style="fill:none;" width="11.699" height="11.7"/>
			<rect x="390.15" y="186.15" style="fill:none;" width="11.699" height="11.7"/>
			<rect x="390.15" y="198.15" style="fill:none;" width="11.699" height="11.7"/>
			<g>
				<polygon style="fill:#263238;" points="366.15,128.258 365.85,128.415 365.85,137.85 366.15,137.85 				"/>
				<polygon style="fill:#263238;" points="366.15,143.75 366.15,138.15 365.85,138.15 365.85,143.75 365.85,144 366.15,144 				"/>
				<path style="fill:#263238;" d="M373.322,138.15c-0.078-0.107-0.147-0.204-0.215-0.3h-6.956h-0.301h-5.6v0.3h5.6h0.301H373.322z"
					/>
				<rect x="360" y="137.85" style="fill:#263238;" width="0.25" height="0.3"/>
				<rect x="365.85" y="144.25" style="fill:#263238;" width="0.301" height="5.6"/>
				<rect x="365.85" y="150.15" style="fill:#263238;" width="0.301" height="11.7"/>
				<path style="fill:#263238;" d="M365.85,183.403c0.1,0.264,0.2,0.528,0.301,0.792V174.15h-0.301V183.403z"/>
				<rect x="365.85" y="162.15" style="fill:#263238;" width="0.301" height="11.7"/>
				<path style="fill:#263238;" d="M390.15,160.346c-0.1-0.131-0.201-0.262-0.301-0.392v1.896h0.301V160.346z"/>
				<polygon style="fill:#263238;" points="389.85,215.75 389.85,216 390.15,216 390.15,215.75 390.15,210.15 389.85,210.15 				"/>
				<rect x="389.85" y="186.15" style="fill:#263238;" width="0.301" height="11.7"/>
				<rect x="389.85" y="198.15" style="fill:#263238;" width="0.301" height="11.7"/>
				<rect x="389.85" y="174.15" style="fill:#263238;" width="0.301" height="11.7"/>
				<rect x="389.85" y="162.15" style="fill:#263238;" width="0.301" height="11.7"/>
				<path style="fill:#263238;" d="M390.15,209.85h-0.301h-11.075c0.062,0.099,0.126,0.202,0.188,0.3h10.887h0.301h11.699v-0.3
					H390.15z"/>
				<path style="fill:#263238;" d="M403.18,210.15c0.082-0.1,0.163-0.2,0.245-0.3h-1.275v0.3H403.18z"/>
				<polygon style="fill:#263238;" points="378.15,185.85 378.15,186.15 389.85,186.15 390.15,186.15 401.85,186.15 401.85,185.85 
					390.15,185.85 389.85,185.85 				"/>
				<polygon style="fill:#263238;" points="409.438,186.15 409.358,185.85 402.15,185.85 402.15,186.15 				"/>
				<path style="fill:#263238;" d="M366.791,185.85c0.039,0.1,0.078,0.2,0.117,0.3h10.942v-0.3H366.791z"/>
				<path style="fill:#263238;" d="M389.85,162.15h0.301h1.384c-0.077-0.1-0.153-0.2-0.23-0.3h-1.154h-0.301H378.15v0.3H389.85z"/>
				<polygon style="fill:#263238;" points="377.85,162.15 377.85,161.85 366.15,161.85 365.85,161.85 360.25,161.85 360.25,162.15 
					365.85,162.15 366.15,162.15 				"/>
				<polygon style="fill:#263238;" points="401.85,198.15 401.85,197.85 390.15,197.85 389.85,197.85 378.15,197.85 378.15,198.15 
					389.85,198.15 390.15,198.15 				"/>
				<path style="fill:#263238;" d="M371.953,197.85c0.05,0.102,0.099,0.198,0.149,0.3h5.747v-0.3H371.953z"/>
				<polygon style="fill:#263238;" points="412.638,198.15 412.558,197.85 402.15,197.85 402.15,198.15 				"/>
				<path style="fill:#263238;" d="M366.15,173.85h-0.301h-3.449c0.034,0.1,0.069,0.199,0.103,0.3h3.345h0.301h11.699v-0.3H366.15z"
					/>
				<path style="fill:#263238;" d="M378.15,173.85v0.3h11.699h0.301h10.609c-0.077-0.1-0.153-0.199-0.231-0.3H390.15h-0.301H378.15z
					"/>
				<polygon style="fill:#263238;" points="377.85,150.15 377.85,149.85 366.15,149.85 365.85,149.85 360.25,149.85 360.25,150.15 
					365.85,150.15 366.15,150.15 				"/>
				<path style="fill:#263238;" d="M382.353,150.15c-0.077-0.101-0.152-0.2-0.228-0.3h-3.974v0.3H382.353z"/>
				<path style="fill:#263238;" d="M378.15,186.15v-0.3v-11.7v-0.3v-11.7v-0.3v-11.7v-0.3v-5.232
					c-0.095-0.125-0.185-0.245-0.278-0.368h-0.023v5.6v0.3v11.7v0.3v11.7v0.3v11.7v0.3v11.7v0.3v10.207
					c0.101,0.164,0.202,0.33,0.301,0.49V198.15v-0.3V186.15z"/>
				<path style="fill:#263238;" d="M402.15,197.85v-11.7v-0.3v-9.894c-0.099-0.129-0.2-0.26-0.301-0.39v10.285v0.3v11.7v0.3v11.7
					v0.3v1.618c0.1-0.121,0.2-0.242,0.301-0.364v-1.254v-0.3v-11.7V197.85z"/>
				<rect x="360" y="161.85" style="fill:#263238;" width="0.25" height="0.3"/>
				<rect x="360" y="149.85" style="fill:#263238;" width="0.25" height="0.3"/>
				<rect x="365.85" y="144" style="fill:#263238;" width="0.301" height="0.25"/>
				<path style="fill:#263238;" d="M377.85,144.22v0.03h0.023C377.865,144.24,377.857,144.23,377.85,144.22z"/>
				<rect x="389.85" y="216.25" style="fill:#263238;" width="0.301" height="5.6"/>
				<path style="fill:#263238;" d="M389.85,222.474c0.102,0.031,0.202,0.057,0.301,0.078v-0.403h-0.301V222.474z"/>
				<path style="fill:#263238;" d="M388.515,221.85c0.182,0.113,0.36,0.212,0.534,0.3h0.801h0.301h1.913
					c0.134-0.088,0.276-0.19,0.422-0.3h-2.335h-0.301H388.515z"/>
				<rect x="389.85" y="216" style="fill:#263238;" width="0.301" height="0.25"/>
				<polygon style="fill:#263238;" points="349.231,137.85 349.357,138.15 353.85,138.15 353.85,137.85 				"/>
				<polygon style="fill:#263238;" points="359.75,137.85 354.15,137.85 354.15,138.15 359.75,138.15 360,138.15 360,137.85 				"/>
				<polygon style="fill:#263238;" points="354.15,134.537 353.85,134.694 353.85,137.85 353.85,138.15 353.85,143.75 353.85,144 
					354.15,144 354.15,143.75 354.15,138.15 354.15,137.85 				"/>
				<path style="fill:#263238;" d="M359.75,161.85h-1.294c0.032,0.1,0.062,0.198,0.094,0.3h1.2H360v-0.3H359.75z"/>
				<polygon style="fill:#263238;" points="359.75,149.85 354.283,149.85 354.409,150.15 359.75,150.15 360,150.15 360,149.85 				
					"/>
				<polygon style="fill:#263238;" points="353.85,148.82 354.15,149.535 354.15,144.25 353.85,144.25 				"/>
				<rect x="353.85" y="144" style="fill:#263238;" width="0.301" height="0.25"/>
			</g>
		</g>
	</g>
</g>
<g id="Character_1">
	<g>
		<path style="fill:#263238;stroke:#263238;stroke-linecap:round;stroke-linejoin:round;stroke-miterlimit:10;" d="M147.081,38.767
			c0,0-1.999-2.544-8.542,0.545c-6.542,3.089-9.632,15.266-12.54,23.262c-2.908,7.996-9.995,9.45-11.995,21.082
			c-1.999,11.631,12.903,22.172,28.533,26.17c15.629,3.998,33.44,1.272,38.165-3.453c4.725-4.725,6.724-6.543,6.724-6.543
			s-1.454,5.816-0.363,5.27c1.09-0.545,4.907-3.09,7.27-15.448c2.363-12.358-2.908-22.172-2.908-22.172s7.633-1.272,5.816-8.905
			c-1.817-7.633-10.359-18.719-27.442-23.263C152.715,30.771,148.171,36.586,147.081,38.767z"/>
		<g>
			<path style="fill:#92E3A9;stroke:#263238;stroke-linejoin:round;stroke-miterlimit:10;" d="M182.999,227.829
				c0,0,0.277-3.343,3.249-13.844c2.972-10.501,12.681-60.828,12.681-74.301c0-13.473-23.38-17.634-24.569-18.823
				c-1.189-1.189-6.34-7.331-8.124-9.511c-1.783-2.179-3.963-1.783-3.963-1.783s-1.783,1.981-1.585,4.557
				c0.198,2.576,14.464,51.714,14.068,60.234s-5.152,23.182-4.359,27.343c0.792,4.161,3.566,27.145,3.566,27.145"/>
			<path style="fill:none;stroke:#263238;stroke-linecap:round;stroke-linejoin:round;stroke-miterlimit:10;" d="M186.119,174.211
				c-0.551,3.977-1.53,7.281-2.264,9.239"/>
			<path style="fill:none;stroke:#263238;stroke-linecap:round;stroke-linejoin:round;stroke-miterlimit:10;" d="M175.289,124.959
				c0,0,8.566,26.676,10.524,35.976c0.613,2.91,0.794,5.82,0.709,8.565"/>
		</g>
		<g>
			<g>
				<path style="fill:#FFFFFF;stroke:#263238;stroke-linecap:round;stroke-linejoin:round;stroke-miterlimit:10;" d="
					M178.916,229.043c0,0-3.765-28.532-4.953-31.702c-1.189-3.17,8.52-10.501,8.718-17.634c0.198-7.133-9.842-33.524-13.473-44.977
					c-2.249-7.092-4.358-10.888-6.539-21.003c-0.729-3.383-0.396-7.727-0.396-7.727l-19.616-11.096c0,0-1.585,4.953-3.17,9.114
					c-1.585,4.161-4.359,7.925-4.953,8.322c-0.594,0.396-8.52,2.972-8.52,2.972s-2.576,78.066-3.765,93.322
					c-1.189,15.257-2.576,21.399-2.576,21.399"/>
				<g>
					
						<line style="fill:none;stroke:#263238;stroke-linecap:round;stroke-linejoin:round;stroke-miterlimit:10;" x1="142.943" y1="195.721" x2="164.04" y2="183.665"/>
					
						<line style="fill:none;stroke:#263238;stroke-linecap:round;stroke-linejoin:round;stroke-miterlimit:10;" x1="137.049" y1="199.089" x2="140.323" y2="197.218"/>
					
						<line style="fill:none;stroke:#263238;stroke-linecap:round;stroke-linejoin:round;stroke-miterlimit:10;" x1="148.452" y1="197.552" x2="167.732" y2="185.434"/>
				</g>
			</g>
			<path style="fill:#FFFFFF;stroke:#263238;stroke-linecap:round;stroke-linejoin:round;stroke-miterlimit:10;" d="
				M162.669,113.728c-0.729-3.383-0.396-7.727-0.396-7.727l-19.616-11.096c0,0-1.585,4.953-3.17,9.114
				c-1.585,4.161-4.359,7.925-4.954,8.322c-0.594,0.396-8.52,2.972-8.52,2.972s-0.314,9.509-0.773,22.532
				c1.603,2.536,8.311,10.755,27.917,10.755c7.901,0,14.027-2.603,18.673-6.032c-1.028-2.99-1.94-5.68-2.624-7.838
				C166.959,127.638,164.85,123.842,162.669,113.728z"/>
		</g>
		<g>
			<path style="fill:#92E3A9;stroke:#263238;stroke-linejoin:round;stroke-miterlimit:10;" d="M95.303,230.43l0.396-8.718
				c0,0-2.774-2.972-3.963-6.737c-1.189-3.765-9.114-24.965-10.501-31.504c-1.387-6.538-0.198-41.609,1.783-50.723
				c1.981-9.114,27.937-15.851,28.532-17.634c0.594-1.783,6.737-6.538,7.371-7.575c0.634-1.037,11.65,5.198,11.65,5.198
				l-3.963,25.361c0,0,1.981,67.961,0,92.332"/>
			<path style="fill:none;stroke:#263238;stroke-linecap:round;stroke-linejoin:round;stroke-miterlimit:10;" d="M115.646,123.774
				c1.744,4.079,4.011,10.111,4.226,14.325"/>
			<path style="fill:none;stroke:#263238;stroke-linecap:round;stroke-linejoin:round;stroke-miterlimit:10;" d="M113.617,119.33
				c0,0,0.395,0.792,0.987,2.087"/>
			<path style="fill:none;stroke:#263238;stroke-linecap:round;stroke-linejoin:round;stroke-miterlimit:10;" d="M106.52,139.153
				c0,0,3.916,6.363,4.895,14.929"/>
		</g>
		<g>
			<path style="fill:#FFFFFF;stroke:#263238;stroke-linecap:round;stroke-linejoin:round;stroke-miterlimit:10;" d="M155.44,51.987
				c0,0-3.128,6.777-8.08,10.165c-4.952,3.388-11.99,6.255-11.99,6.255s6.256,29.453,9.644,32.842
				c3.388,3.388,9.383,7.819,14.336,8.08c4.952,0.261,10.028-5.808,12.634-9.197c2.607-3.388,6.914-15.044,7.957-18.432
				c1.043-3.388,1.825-16.681,1.825-16.681S160.652,62.934,155.44,51.987z"/>
			<path style="fill:none;stroke:#263238;stroke-linecap:round;stroke-linejoin:round;stroke-miterlimit:10;" d="M159.871,87.435
				c0,0,4.17,3.649,5.474,2.606c1.303-1.043,1.043-8.341,1.043-8.341s-0.461-5.044-0.158-6.256c0.303-1.212,1.363-2.423,1.363-2.423
				"/>
			<path style="fill:none;stroke:#263238;stroke-linecap:round;stroke-linejoin:round;stroke-miterlimit:10;" d="M165.017,95.438
				c0,0-7.27,0.454-11.965-4.544c0,0,2.12,6.664,4.695,6.967S165.017,95.438,165.017,95.438z"/>
			<path style="fill:none;stroke:#263238;stroke-linecap:round;stroke-linejoin:round;stroke-miterlimit:10;" d="M160.644,70.5
				c0,0-5.702-3.621-11.756-0.417"/>
			<path style="fill:none;stroke:#263238;stroke-linecap:round;stroke-linejoin:round;stroke-miterlimit:10;" d="M169.257,72.87
				c0,0,6.664-2.575,9.239,1.06"/>
			<ellipse style="fill:#263238;" cx="156.459" cy="75.673" rx="1.287" ry="2.348"/>
			<path style="fill:#263238;" d="M174.786,78.626c0,1.297-0.576,2.348-1.287,2.348s-1.287-1.051-1.287-2.348
				c0-1.297,0.576-2.348,1.287-2.348S174.786,77.329,174.786,78.626z"/>
			<path style="fill:none;stroke:#263238;stroke-linecap:round;stroke-linejoin:round;stroke-miterlimit:10;" d="M158.429,78.392
				c0,0-2.749,2.062-5.268,2.52"/>
			<path style="fill:none;stroke:#263238;stroke-linecap:round;stroke-linejoin:round;stroke-miterlimit:10;" d="M170.133,79.996
				c0,0,1.009,3.228,4.072,3.924"/>
		</g>
		<polygon style="fill:#92E3A9;stroke:#263238;stroke-linejoin:round;stroke-miterlimit:10;" points="124.978,71.605 
			136.979,101.836 150.304,94.792 138.114,64.942 		"/>
		<g>
			<path style="fill:#FFFFFF;stroke:#263238;stroke-linecap:round;stroke-linejoin:round;stroke-miterlimit:10;" d="M134.023,71.753
				c0,0-13.461,13.625-13.953,16.252c-0.493,2.627-1.149,18.55-1.149,19.535c0,0.985,6.895,22.49,6.895,22.49l-6.074,13.133
				l13.789,10.014l3.283-28.399c0,0,1.642-2.791,0.164-8.044c-1.477-5.253-3.94-13.789-3.94-13.789l4.76-8.044
				c0,0,5.91-3.611,6.566-4.432c0.657-0.821,0.657-1.313-0.328-1.477c-0.985-0.164-1.97,0.328-2.462,0.493
				c-0.493,0.164-7.059,3.447-7.059,3.447l-3.611,2.134l3.776-6.402l7.551-6.074c0,0,1.97-0.985,1.642-2.134
				c-0.328-1.149-1.642-1.477-2.462-1.149s-6.238,3.94-6.238,3.94l6.238-6.73c0,0,0-1.642-0.657-2.134
				c-0.657-0.493-0.985-0.164-1.477,0.164c-0.493,0.328-9.357,8.372-9.357,8.372s6.402-9.029,6.73-9.85
				C136.978,72.245,135.665,69.455,134.023,71.753z"/>
			<polyline style="fill:none;stroke:#263238;stroke-linecap:round;stroke-linejoin:round;stroke-miterlimit:10;" points="
				135.172,83.244 129.427,88.169 126.472,93.914 			"/>
			<polyline style="fill:none;stroke:#263238;stroke-linecap:round;stroke-linejoin:round;stroke-miterlimit:10;" points="
				129.919,82.916 124.01,88.497 122.368,92.929 			"/>
		</g>
		<path style="fill:#92E3A9;stroke:#263238;stroke-linejoin:round;stroke-miterlimit:10;" d="M84.009,193.379
			c0,0,10.105,30.909,13.473,31.9c3.368,0.991,8.916-1.387,17.436-16.445s17.634-44.184,17.634-44.184l-18.427-12.483L88.17,183.472
			"/>
		<polygon style="fill:#FFFFFF;stroke:#263238;stroke-linecap:round;stroke-linejoin:round;stroke-miterlimit:10;" points="
			119.872,138.098 140.478,152.364 132.751,168.413 111.55,151.968 		"/>
	</g>
</g>
</svg>
