<?xml version="1.0" encoding="utf-8"?>
<!-- Generator: Adobe Illustrator 27.5.0, SVG Export Plug-In . SVG Version: 6.00 Build 0)  -->
<svg version="1.1" xmlns="http://www.w3.org/2000/svg" xmlns:xlink="http://www.w3.org/1999/xlink" x="0px" y="0px"
	 viewBox="0 0 500 500" style="enable-background:new 0 0 500 500;" xml:space="preserve">
<g id="BACKGROUND">
	<rect style="fill:#C5DEF3;" width="500" height="500"/>
</g>
<g id="OBJECTS">
	<g>
		
			<polygon style="fill:#FFFFFF;stroke:#0C1A3B;stroke-width:2.0524;stroke-linecap:round;stroke-linejoin:round;stroke-miterlimit:10;" points="
			43.28,44.549 49.328,229.131 203.226,229.131 207.258,48.245 		"/>
		<g>
			<g>
				
					<path style="fill:#0C1A3B;stroke:#0C1A3B;stroke-width:2.0524;stroke-linecap:round;stroke-linejoin:round;stroke-miterlimit:10;" d="
					M145.171,147.385c0,0,1.528-6.936,4.809-9.04c3.281-2.104,16.204-2.029,16.204-2.029l-15.477,17.581L145.171,147.385z"/>
				
					<path style="fill:#0C1A3B;stroke:#0C1A3B;stroke-width:2.0524;stroke-linecap:round;stroke-linejoin:round;stroke-miterlimit:10;" d="
					M124.935,152.531l11.02-1.539l8.916-5.009c0,0,2.304,0.473,5.109,6.547l-25.044,21.502V152.531z"/>
			</g>
			<g>
				
					<path style="fill:#EE6E76;stroke:#0C1A3B;stroke-width:2.0524;stroke-linecap:round;stroke-linejoin:round;stroke-miterlimit:10;" d="
					M145.171,60.232c-0.401,6.812-1.202,24.043-1.803,25.645c-0.601,1.603-6.211,0-6.211,0s-7.012,14.626-11.42,17.03
					c-4.408,2.404-10.018-7.614-10.018-7.614l-6.211,11.22L90.073,87.309l10.018-11.85c0,0,6.612-24.227,15.828-31.949
					C125.135,35.789,144.169,48.611,145.171,60.232z"/>
				
					<path style="fill:#0C1A3B;stroke:#0C1A3B;stroke-width:2.0524;stroke-linecap:round;stroke-linejoin:round;stroke-miterlimit:10;" d="
					M134.619,72.9c-0.679,0.907-0.632,2.09,0.105,2.642c0.737,0.552,1.886,0.263,2.565-0.644c0.679-0.908,0.632-2.091-0.105-2.642
					C136.447,71.704,135.298,71.992,134.619,72.9z"/>
				
					<path style="fill:#0C1A3B;stroke:#0C1A3B;stroke-width:2.0524;stroke-linecap:round;stroke-linejoin:round;stroke-miterlimit:10;" d="
					M145.171,60.232c12.422-0.601,16.63-18.134,2.605-19.786c-14.025-1.652-8.415-15.476-32.057-11.87
					C101.271,30.78,98.944,41.364,99.32,49.263c0.241,5.062-0.655,10.078-1.957,14.975c-0.993,3.737-0.623,8.286,0.821,13.476
					c0,0,7.717,1.047,14.929-9.339c0,0-3.206-5.739-1.002-8.745c3.37-4.595,13.424,8.745,13.424,8.745s2.004-3.335,6.211-6.14
					c4.208-2.805-0.024-7.613,2.392-10.218C136.555,49.413,145.171,60.232,145.171,60.232z"/>
				
					<path style="fill:#0C1A3B;stroke:#0C1A3B;stroke-width:2.0524;stroke-linecap:round;stroke-linejoin:round;stroke-miterlimit:10;" d="
					M125.536,68.375c-8.014,15.298-10.117,16.426,5.36,28.685c0,0-0.952,7.851-7.564,9.454c-6.612,1.603-11.02-13.224-11.02-20.236
					c0-7.012,11.02-23.642,11.02-23.642"/>
				
					<path style="fill:#0C1A3B;stroke:#0C1A3B;stroke-width:2.0524;stroke-linecap:round;stroke-linejoin:round;stroke-miterlimit:10;" d="
					M118.523,87.309c9.617-9.245,18.633-1.432,18.633-1.432c1.377,1.227,0.025,5.435-2.083,4.072c0,0-7.233-7.156-13.469,0.744"/>
				
					<path style="fill:none;stroke:#0C1A3B;stroke-width:2.0524;stroke-linecap:round;stroke-linejoin:round;stroke-miterlimit:10;" d="
					M130.344,92.138c0,0-0.801-0.401-1.703-1.903"/>
			</g>
			<g>
				
					<path style="fill:#FFFFFF;stroke:#0C1A3B;stroke-width:2.0524;stroke-linecap:round;stroke-linejoin:round;stroke-miterlimit:10;" d="
					M90.073,82.793c20.837,15.507,25.245,27.728,25.245,27.728l-3.005,2.259c0,0,10.619,11.365,15.528,37.611
					c4.909,26.247,3.907,78.74,3.907,78.74H62.624c0,0-1.603-65.316,1.603-94.567c3.206-29.252,21.839-45.28,21.839-45.28
					L90.073,82.793z"/>
				
					<path style="fill:#0C1A3B;stroke:#0C1A3B;stroke-width:2.0524;stroke-linecap:round;stroke-linejoin:round;stroke-miterlimit:10;" d="
					M82.721,182.554l20.976,5.814l27.206-8.404c1.321,24.135,0.843,49.167,0.843,49.167h-25.757
					C101.177,218.659,93.31,202.255,82.721,182.554z"/>
				
					<path style="fill:none;stroke:#0C1A3B;stroke-width:2.0524;stroke-linecap:round;stroke-linejoin:round;stroke-miterlimit:10;" d="
					M108.906,109.519c0,0-15.027-14.225-22.84-20.236"/>
			</g>
			<g>
				<g>
					
						<polygon style="fill:#FFFFFF;stroke:#0C1A3B;stroke-width:2.0524;stroke-linecap:round;stroke-linejoin:round;stroke-miterlimit:10;" points="
						184.039,129.555 155.088,145.082 157.192,149.59 186.121,133.704 					"/>
					<g>
						<path style="fill:#EE6E76;" d="M150.591,149.797c0,0,1.039-8.021,3.578-10.225c2.539-2.204,11.07-3.506,13.406-5.41
							c2.336-1.903,3.735,1.488,2.934,2.597c-0.801,1.109-7.707,6.92-7.707,6.92s8.859-2.079,13.071-4.361
							c0,0,3.178,0.053,0.842,4.461c-2.336,4.408-1.999,11.384-3.148,15.027c-1.422,4.508-5.586,5.923-5.586,5.923l-12.187,2.773
							l-7.718-14.406L150.591,149.797z"/>
						
							<path style="fill:none;stroke:#0C1A3B;stroke-width:2.0524;stroke-linecap:round;stroke-linejoin:round;stroke-miterlimit:10;" d="
							M174.529,152.949c-0.171,1.291-0.665,4.912-0.963,5.857c-1.422,4.508-5.586,5.923-5.586,5.923l-12.187,2.773l-7.718-14.406
							l2.516-3.299c0,0,1.039-8.021,3.578-10.225c2.539-2.204,10.969-3.637,13.406-5.41c3.03-2.204,4.111,2.018,2.133,3.707
							c-1.041,0.888-6.906,5.81-6.906,5.81s8.716-1.102,14.771-5.281"/>
						
							<path style="fill:none;stroke:#0C1A3B;stroke-width:2.0524;stroke-linecap:round;stroke-linejoin:round;stroke-miterlimit:10;" d="
							M176.501,144.222c-3.281,3.966-6.487,6.326-6.487,6.326"/>
						
							<path style="fill:none;stroke:#0C1A3B;stroke-width:2.0524;stroke-linecap:round;stroke-linejoin:round;stroke-miterlimit:10;" d="
							M174.529,152.949c-2.411,3.853-5.516,6.358-5.516,6.358"/>
					</g>
					
						<path style="fill:none;stroke:#0C1A3B;stroke-width:2.0524;stroke-linecap:round;stroke-linejoin:round;stroke-miterlimit:10;" d="
						M176.927,127.651c-2.104-7.754-0.425-12.622,2.44-18.833"/>
					
						<path style="fill:none;stroke:#0C1A3B;stroke-width:2.0524;stroke-linecap:round;stroke-linejoin:round;stroke-miterlimit:10;" d="
						M173.621,129.555c-6.511-10.419-14.215-9.402-12.168-4.587c2.047,4.815,8.561-3.928-0.855-10.74"/>
				</g>
				<g>
					
						<path style="fill:#FFFFFF;stroke:#0C1A3B;stroke-width:2.0524;stroke-linecap:round;stroke-linejoin:round;stroke-miterlimit:10;" d="
						M101.293,123.945c8.215,12.622,14.826,40.803,14.826,40.803l23.642-8.786l9.617-7.574c0,0,13.023,10.49,12.622,23.377
						l-14.025,8.279c0,0-23.441,28.25-39.871,30.654c-16.429,2.404-39.47-55.899-38.468-71.126
						c1.002-15.227,7.213-23.248,25.846-18.135"/>
					
						<path style="fill:none;stroke:#0C1A3B;stroke-width:2.0524;stroke-linecap:round;stroke-linejoin:round;stroke-miterlimit:10;" d="
						M149.979,172.831c-3.206-13.023-10.218-16.87-10.218-16.87"/>
					
						<path style="fill:none;stroke:#0C1A3B;stroke-width:2.0524;stroke-linecap:round;stroke-linejoin:round;stroke-miterlimit:10;" d="
						M116.119,164.747c-3.675,1.227-6.999,3.459-9.101,5.077c-1.266,0.975-3.1,0.288-3.475-1.265
						c-0.618-2.56,0.374-4.01,6.215-3.812"/>
				</g>
			</g>
		</g>
		
			<polygon style="fill:#C5DEF3;stroke:#3889C8;stroke-width:2.0524;stroke-linecap:round;stroke-linejoin:round;stroke-miterlimit:10;" points="
			169.013,31.73 232.763,31.73 232.763,72.446 197.639,72.446 190.68,82.688 187.432,72.446 169.013,72.446 		"/>
	</g>
	<g>
		
			<polygon style="fill:#FFFFFF;stroke:#0C1A3B;stroke-width:2.0524;stroke-linecap:round;stroke-linejoin:round;stroke-miterlimit:10;" points="
			47.437,270.013 54.063,472.022 223.704,472.022 226.575,270.013 		"/>
		<g>
			<g>
				<g>
					
						<path style="fill:#EE6E76;stroke:#0C1A3B;stroke-width:2.0524;stroke-linecap:round;stroke-linejoin:round;stroke-miterlimit:10;" d="
						M136.014,271.317c0,0,12.923,20.225,13.674,25.365c0.751,5.14-4.358,4.839-4.358,4.839s0.15,21.638-3.757,24.944
						c-3.907,3.306-11.57,1.202-11.57,1.202l-4.658,24.681l-27.198-16.266l8.415-22.991c0,0-7.363-2.317-9.767-23.623
						C94.391,268.161,120.988,255.689,136.014,271.317z"/>
					
						<path style="fill:#0C1A3B;stroke:#0C1A3B;stroke-width:2.0524;stroke-linecap:round;stroke-linejoin:round;stroke-miterlimit:10;" d="
						M121.739,323.459c0,0,2.215,9.459,6.592,13.069l1.673-8.862C125.496,326.164,121.739,323.459,121.739,323.459z"/>
					
						<path style="fill:#0C1A3B;stroke:#0C1A3B;stroke-width:2.0524;stroke-linecap:round;stroke-linejoin:round;stroke-miterlimit:10;" d="
						M136.899,288.468c0.679,0.908,0.632,2.09-0.105,2.642c-0.737,0.552-1.886,0.263-2.565-0.644
						c-0.679-0.908-0.632-2.091,0.105-2.642C135.071,287.272,136.219,287.561,136.899,288.468z"/>
					
						<path style="fill:none;stroke:#0C1A3B;stroke-width:2.0524;stroke-linecap:round;stroke-linejoin:round;stroke-miterlimit:10;" d="
						M139.32,311.287c-5.109-0.902-9.317-3.757-9.317-3.757"/>
				</g>
				<g>
					<path style="fill:#F9BC14;" d="M116.179,275.073c6.161,10.218,0,23.178,0,23.178s-8.866-3.569-10.819,0
						c-1.953,3.569,7.513,8.528,7.513,8.528l-10.693,18.283c0,0-8.841-12.723-15.754-19.485s-0.751-16.98-0.751-16.98
						s-7.363-8.866,1.653-19.534c9.016-10.669,23.742-3.005,29.452-9.617c5.71-6.612,17.894-10.519,20.598-4.207l-1.364,16.078
						c0,0-5.56-6.311-10.143-0.601C121.288,276.426,116.179,275.073,116.179,275.073z"/>
					
						<path style="fill:none;stroke:#0C1A3B;stroke-width:2.0524;stroke-linecap:round;stroke-linejoin:round;stroke-miterlimit:10;" d="
						M136.014,271.317c0,0-5.56-6.311-10.143-0.601c-4.583,5.71-9.692,4.358-9.692,4.358c6.161,10.218,0,23.178,0,23.178
						s-8.866-3.569-10.819,0c-1.953,3.569,7.513,8.528,7.513,8.528l-10.693,18.283c0,0-8.841-12.723-15.754-19.485
						s-0.751-16.98-0.751-16.98s-7.363-8.866,1.653-19.534c9.016-10.669,23.742-3.005,29.452-9.617
						c5.71-6.612,17.894-10.519,20.598-4.207"/>
					
						<path style="fill:none;stroke:#0C1A3B;stroke-width:2.0524;stroke-linecap:round;stroke-linejoin:round;stroke-miterlimit:10;" d="
						M123.203,263.428c9.355-6.762,13.513-0.386,13.513-0.386"/>
					
						<path style="fill:none;stroke:#0C1A3B;stroke-width:2.0524;stroke-linecap:round;stroke-linejoin:round;stroke-miterlimit:10;" d="
						M116.179,275.073c-2.705-0.075-6.987-2.78-6.987-2.78"/>
					
						<path style="fill:none;stroke:#0C1A3B;stroke-width:2.0524;stroke-linecap:round;stroke-linejoin:round;stroke-miterlimit:10;" d="
						M112.686,286.244c-11.383-1.854-16.043,0-16.043,0"/>
					
						<path style="fill:none;stroke:#0C1A3B;stroke-width:2.0524;stroke-linecap:round;stroke-linejoin:round;stroke-miterlimit:10;" d="
						M116.179,298.251c0,0-6.169-4.279-19.537-1.57"/>
				</g>
			</g>
			<g>
				<g>
					<path style="fill:#EE6E76;" d="M193.115,404.517c0,0,5.212-10.57,10.283-16.486c5.071-5.916,12.818-10.283,12.818-10.283
						s2.113,3.099,1.69,4.226c-0.423,1.127-6.479,6.761-6.479,6.761s10.142-3.269,23.241-4.522h2.676l2.102,3.201l-10.764,2.881
						l12.546-0.166l1.187,4.618h-4.367l0.986,4.693l-11.832,3.521h11.268v3.427c0,0-27.78,7.091-37.186,12.489"/>
					
						<path style="fill:#0C1A3B;stroke:#0C1A3B;stroke-width:1.9238;stroke-linecap:round;stroke-linejoin:round;stroke-miterlimit:10;" d="
						M194.357,406.7l6.928,12.178c1.858-1.067,4.439-2.199,7.376-3.33c-3.149-3.123-7.226-7.004-12.17-11.368L194.357,406.7z"/>
					
						<path style="fill:none;stroke:#0C1A3B;stroke-width:1.9238;stroke-linecap:round;stroke-linejoin:round;stroke-miterlimit:10;" d="
						M238.471,406.389c0,0-27.78,7.091-37.186,12.489"/>
					
						<path style="fill:none;stroke:#0C1A3B;stroke-width:1.9238;stroke-linecap:round;stroke-linejoin:round;stroke-miterlimit:10;" d="
						M193.115,404.517c0,0,5.212-10.57,10.283-16.486c5.071-5.916,12.818-10.283,12.818-10.283s2.113,3.099,1.69,4.226
						c-0.423,1.127-6.479,6.761-6.479,6.761s11.55-3.592,25.917-4.522"/>
					
						<path style="fill:none;stroke:#0C1A3B;stroke-width:1.9238;stroke-linecap:round;stroke-linejoin:round;stroke-miterlimit:10;" d="
						M211.427,388.735c2.958,9.513-5.071,19.025-5.071,19.025"/>
					
						<path style="fill:none;stroke:#0C1A3B;stroke-width:1.9238;stroke-linecap:round;stroke-linejoin:round;stroke-miterlimit:10;" d="
						M238.471,402.961c-5.916,0.141-20.142,1.555-20.142,1.555l20.706-5.077"/>
					
						<path style="fill:none;stroke:#0C1A3B;stroke-width:1.9238;stroke-linecap:round;stroke-linejoin:round;stroke-miterlimit:10;" d="
						M217.061,399.017c0,0,13.945-3.611,25.354-4.27"/>
					
						<path style="fill:none;stroke:#0C1A3B;stroke-width:1.9238;stroke-linecap:round;stroke-linejoin:round;stroke-miterlimit:10;" d="
						M217.061,392.087c12.536-2.93,24.167-1.958,24.167-1.958"/>
				</g>
				<g>
					
						<path style="fill:#3889C8;stroke:#0C1A3B;stroke-width:2.0524;stroke-linecap:round;stroke-linejoin:round;stroke-miterlimit:10;" d="
						M160.858,417.125c15.027-6.411,32.196-18.308,32.196-18.308s10.68,11.096,12.483,22.917l-11.821,7.902
						c0,0-13.154,15.264-34.714,26.078c-22.11,11.089-16.577-32.979-16.577-32.979"/>
					
						<line style="fill:none;stroke:#FFFFFF;stroke-width:2.0524;stroke-linecap:round;stroke-linejoin:round;stroke-miterlimit:10;" x1="200.929" y1="418.878" x2="191.796" y2="424.637"/>
					
						<path style="fill:none;stroke:#0C1A3B;stroke-width:2.0524;stroke-linecap:round;stroke-linejoin:round;stroke-miterlimit:10;" d="
						M184.3,410.112c6.211,9.818,9.417,19.523,9.417,19.523"/>
					
						<path style="fill:#0C1A3B;stroke:#0C1A3B;stroke-width:2.0524;stroke-linecap:round;stroke-linejoin:round;stroke-miterlimit:10;" d="
						M163.999,415.72l5.318,8.021c3.602-5.102,7.513-11.249,10.875-16.724C175.327,409.921,169.609,413.11,163.999,415.72z"/>
				</g>
			</g>
			<g>
				
					<path style="fill:#3889C8;stroke:#0C1A3B;stroke-width:2.0524;stroke-linecap:round;stroke-linejoin:round;stroke-miterlimit:10;" d="
					M99.251,333.067c0,0-27.55,23.15-27.751,55.407c-0.2,32.257,5.41,57.502,5.41,57.502l-1.803,26.046h85.752
					c0,0-7.413-64.514-9.016-83.147c-0.644-7.487-2.485-15.686-4.457-22.816c-3.208-11.599-12.001-20.824-23.406-24.665
					L99.251,333.067z"/>
				
					<path style="fill:none;stroke:#0C1A3B;stroke-width:2.0524;stroke-linecap:round;stroke-linejoin:round;stroke-miterlimit:10;" d="
					M76.854,446.773c2.259-13.62,2.86-26.9,2.86-26.9"/>
				
					<path style="fill:none;stroke:#0C1A3B;stroke-width:2.0524;stroke-linecap:round;stroke-linejoin:round;stroke-miterlimit:10;" d="
					M130.004,344.05c0,7.96,0,12.167,0,12.167"/>
				
					<path style="fill:#0C1A3B;stroke:#0C1A3B;stroke-width:2.0524;stroke-linecap:round;stroke-linejoin:round;stroke-miterlimit:10;" d="
					M93.015,410.346c26.657,24.611,51.654,38.572,65.988,45.368c-1.666-14.738-4.094-36.46-5.723-52.156l-33.894,1.146
					L93.015,410.346z"/>
				
					<path style="fill:#3889C8;stroke:#0C1A3B;stroke-width:2.0524;stroke-linecap:round;stroke-linejoin:round;stroke-miterlimit:10;" d="
					M95.743,329.019c18.783,5.56,34.261,15.031,34.261,15.031l-10.018,12.167l-26.247-17.758L95.743,329.019z"/>
			</g>
			<g>
				<g>
					<g>
						
							<path style="fill:#FFFFFF;stroke:#0C1A3B;stroke-width:2.0524;stroke-linecap:round;stroke-linejoin:round;stroke-miterlimit:10;" d="
							M106.411,291.391c-3.777,5.049-6.373,11.782-8.41,19.313l39.074,24.4l10.444-20.082L106.411,291.391z"/>
						
							<path style="fill:none;stroke:#0C1A3B;stroke-width:2.0524;stroke-linecap:round;stroke-linejoin:round;stroke-miterlimit:10;" d="
							M116.179,297.036c-6.987,9.762-9.026,19.524-9.026,19.524"/>
						<g>
							<path style="fill:#0C1A3B;" d="M105.118,308.947c-0.273,0-0.552-0.038-0.828-0.117c-1.596-0.456-2.519-2.12-2.063-3.716
								c0.486-1.702,1.297-3.28,1.865-4.318c0.797-1.457,2.623-1.991,4.078-1.195c1.457,0.796,1.991,2.623,1.195,4.078
								c-0.43,0.787-1.038,1.962-1.361,3.088C107.629,308.086,106.426,308.947,105.118,308.947z"/>
						</g>
					</g>
					<g>
						
							<path style="fill:#EE6E76;stroke:#0C1A3B;stroke-width:2.0524;stroke-linecap:round;stroke-linejoin:round;stroke-miterlimit:10;" d="
							M140.222,353.011l-2.104-8.505c0,0-7.113-3.824-11.42-7.978s-8.215-8.661-8.215-8.661s1.234-2.13,2.605-2.004
							c1.37,0.126,4.38,2.008,4.38,2.008s-2.377-7.483-2.978-13.911c-0.601-6.429-0.04-13.299-0.04-13.299l3.726,2.153
							c0.464,0.268,0.741,0.768,0.719,1.303c-0.084,1.988-0.205,6.943,0.504,9.842c0.902,3.689,4.308,10.702,4.308,10.702
							s-0.324-11.099,2.042-17.471c5.04-0.128,10.309,2.934,13.844,8.001l-0.358,7.266c0,0,5.209,7.313,6.511,12.322
							c1.302,5.009,3.51,15.928,3.51,15.928"/>
						
							<path style="fill:#0C1A3B;stroke:#0C1A3B;stroke-width:1.9238;stroke-linecap:round;stroke-linejoin:round;stroke-miterlimit:10;" d="
							M140.222,353.011l17.034-2.305c0,0-1.27-6.281-2.452-11.501c-6.928,2.018-13.063,6.958-15.695,9.307L140.222,353.011z"/>
						
							<path style="fill:none;stroke:#0C1A3B;stroke-width:2.0524;stroke-linecap:round;stroke-linejoin:round;stroke-miterlimit:10;" d="
							M142.87,310.314c-1.145,7.635-1.145,10.74-1.145,10.74"/>
						
							<path style="fill:none;stroke:#0C1A3B;stroke-width:2.0524;stroke-linecap:round;stroke-linejoin:round;stroke-miterlimit:10;" d="
							M138.623,308.021c-1.707,7.023-1.707,11.831-1.707,11.831"/>
						
							<path style="fill:none;stroke:#0C1A3B;stroke-width:2.0524;stroke-linecap:round;stroke-linejoin:round;stroke-miterlimit:10;" d="
							M125.468,327.871c0.629,2.2,7.741,9.212,7.741,9.212"/>
					</g>
				</g>
				<g>
					
						<path style="fill:#3889C8;stroke:#0C1A3B;stroke-width:2.0524;stroke-linecap:round;stroke-linejoin:round;stroke-miterlimit:10;" d="
						M73.824,388.474c8.19,21.839,54.977,44.679,72.609,47.284c17.631,2.605,26.246-10.419,26.246-30.654
						c0-20.236-6.812-43.477-6.812-43.477s-2.404-14.225-5.009-16.629c-2.605-2.404-23.128,4.799-23.128,4.799l1.59,16.439
						l0.901,26.447c0,0-20.236-23.121-34.862-29.893"/>
					
						<path style="fill:none;stroke:#FFFFFF;stroke-width:2.0524;stroke-linecap:round;stroke-linejoin:round;stroke-miterlimit:10;" d="
						M156.901,349.155c1.803,7.663,2.101,12.263,2.101,12.263"/>
					
						<path style="fill:none;stroke:#0C1A3B;stroke-width:2.0524;stroke-linecap:round;stroke-linejoin:round;stroke-miterlimit:10;" d="
						M144.029,364.632c14.826-4.809,21.839-3.005,21.839-3.005"/>
					
						<path style="fill:none;stroke:#0C1A3B;stroke-width:2.0524;stroke-linecap:round;stroke-linejoin:round;stroke-miterlimit:10;" d="
						M140.222,392.681c-0.801,7.614,0,16.429,0,16.429S130.004,402.544,140.222,392.681"/>
					
						<path style="fill:none;stroke:#0C1A3B;stroke-width:2.0524;stroke-linecap:round;stroke-linejoin:round;stroke-miterlimit:10;" d="
						M72.555,377.827c3.096-10.913,12.57-16.2,19.382-17.402"/>
				</g>
			</g>
		</g>
		
			<polygon style="fill:#C5DEF3;stroke:#3889C8;stroke-width:2.0524;stroke-linecap:round;stroke-linejoin:round;stroke-miterlimit:10;" points="
			175.551,252.177 239.301,252.177 239.301,292.893 204.177,292.893 197.218,303.135 193.97,292.893 175.551,292.893 		"/>
	</g>
	<g>
		
			<polygon style="fill:#FFFFFF;stroke:#0C1A3B;stroke-width:2.0524;stroke-linecap:round;stroke-linejoin:round;stroke-miterlimit:10;" points="
			260.395,45.915 266.443,230.979 432.737,230.979 433.837,49.611 		"/>
		<g>
			<g>
				<g>
					<g>
						
							<path style="fill:#EE6E76;stroke:#0C1A3B;stroke-width:2.0524;stroke-linecap:round;stroke-linejoin:round;stroke-miterlimit:10;" d="
							M306.99,190.307c0,0,5.56-6.386,5.27-8.916c-0.29-2.529-6.548-7.613-8.454-8.741c-1.906-1.127-6.509,1.127-6.509,1.127
							L283.9,162.714c0,0,0.324,5.73,1.752,8.059s7.814,7.889,7.814,7.889s1.503,3.381,4.508,7.964
							c3.005,4.583,6.687,8.265,11.646,9.016c4.959,0.751,10.218,0,10.218,0l3.875-12.647c0,0-4.375-8.449-7.681-12.89
							c-1.427-1.917-2.649-3.007-3.771-3.707l-16.465,2.672"/>
						
							<path style="fill:none;stroke:#0C1A3B;stroke-width:2.0524;stroke-linecap:round;stroke-linejoin:round;stroke-miterlimit:10;" d="
							M311.814,180.197c1.382,3.252,3.05,5.61,4.373,7.156"/>
						<g>
							
								<polygon style="fill:#FFFFFF;stroke:#0C1A3B;stroke-width:2.0524;stroke-linecap:round;stroke-linejoin:round;stroke-miterlimit:10;" points="
								282.371,156.748 282.371,161.456 306.614,181.392 314.027,179.689 315.129,177.184 290.987,157.81 							"/>
							
								<polygon style="fill:#0C1A3B;stroke:#0C1A3B;stroke-width:2.0524;stroke-linecap:round;stroke-linejoin:round;stroke-miterlimit:10;" points="
								306.614,181.391 314.027,179.689 315.129,177.184 314.823,176.938 307.816,178.086 282.371,156.748 282.371,161.456 							
								"/>
						</g>
						
							<path style="fill:#EE6E76;stroke:#0C1A3B;stroke-width:2.0524;stroke-linecap:round;stroke-linejoin:round;stroke-miterlimit:10;" d="
							M313.34,167.182c-1.817-1.519-3.857-1.951-5.223-2.52c-2.404-1.002-6.111,1.302-9.817,0.501
							c-1.668-0.361-2.058,0.475-1.982,1.505c0.121,1.645,1.332,3.001,2.903,3.502c2.192,0.699,7.564,1.628,9.698,1.305"/>
						<path style="fill:#EE6E76;" d="M306.99,190.307c0,0,5.56-6.386,5.27-8.916c-0.29-2.529-6.548-7.613-8.454-8.741
							c-0.635-0.376-1.57-0.376-2.535-0.209c-2.249,0.389-4.243,1.679-5.652,3.475c0,0-0.3,2.814,1.228,5.474"/>
						
							<path style="fill:none;stroke:#0C1A3B;stroke-width:2.0524;stroke-linecap:round;stroke-linejoin:round;stroke-miterlimit:10;" d="
							M294.248,180.264c-0.857-2.181,1.371-4.347,1.371-4.347c1.409-1.796,3.403-3.086,5.652-3.475
							c0.964-0.167,1.899-0.167,2.535,0.209c1.906,1.127,8.164,6.211,8.454,8.741c0.289,2.529-5.27,8.916-5.27,8.916
							s3.174-0.501,5.281,0.651"/>
						
							<path style="fill:none;stroke:#0C1A3B;stroke-width:2.0524;stroke-linecap:round;stroke-linejoin:round;stroke-miterlimit:10;" d="
							M310.239,178.119c-3.625,3.273-7.078,7.305-7.078,7.305"/>
						
							<path style="fill:none;stroke:#0C1A3B;stroke-width:2.0524;stroke-linecap:round;stroke-linejoin:round;stroke-miterlimit:10;" d="
							M306.241,174.415c0,0-3.458,2.654-6.764,6.907"/>
					</g>
					<g>
						<g>
							
								<path style="fill:#01918B;stroke:#0C1A3B;stroke-width:2.0524;stroke-linecap:round;stroke-linejoin:round;stroke-miterlimit:10;" d="
								M340.174,184.898l-17.631-5.209c0,0-2.404,12.823-7.413,20.035l10.018,8.014c0,0,12.422,13.758,17.431,13.424"/>
							
								<path style="fill:#0C1A3B;stroke:#0C1A3B;stroke-width:2.0524;stroke-linecap:round;stroke-linejoin:round;stroke-miterlimit:10;" d="
								M334.272,204.126l6.593-8.797l-0.691-10.431l-17.631-5.209C333.512,185.499,334.272,204.126,334.272,204.126z"/>
							
								<path style="fill:none;stroke:#0C1A3B;stroke-width:2.0524;stroke-linecap:round;stroke-linejoin:round;stroke-miterlimit:10;" d="
								M325.147,207.738c0,0,3.145-2.756,5.393-9.532"/>
						</g>
						
							<path style="fill:#0C1A3B;stroke:#0C1A3B;stroke-width:2.0524;stroke-linecap:round;stroke-linejoin:round;stroke-miterlimit:10;" d="
							M325.299,198.205c0,0.876-0.711,1.587-1.587,1.587s-1.587-0.71-1.587-1.587c0-0.876,0.711-1.587,1.587-1.587
							C324.589,196.618,325.299,197.329,325.299,198.205z"/>
					</g>
				</g>
				<g>
					
						<path style="fill:none;stroke:#0C1A3B;stroke-width:2.0524;stroke-linecap:round;stroke-linejoin:round;stroke-miterlimit:10;" d="
						M299.49,153.73c0,0-6.778-11.926-3.027-19.87c3.751-7.944,8.14-1.719,5.947,0.386c-2.193,2.106-8.373,2.234-8.86-6.85"/>
					
						<line style="fill:none;stroke:#0C1A3B;stroke-width:2.0524;stroke-linecap:round;stroke-linejoin:round;stroke-miterlimit:10;" x1="306.371" y1="154.312" x2="312.168" y2="144.137"/>
				</g>
			</g>
			<g>
				
					<path style="fill:#01918B;stroke:#0C1A3B;stroke-width:2.0524;stroke-linecap:round;stroke-linejoin:round;stroke-miterlimit:10;" d="
					M361.991,114.629c-24.844,30.136-27.828,49.845-27.428,69.774s-2.004,46.577-2.004,46.577h83.748c0,0,3.206-53.895-3.606-86.353
					s-27.327-43.377-27.327-43.377L361.991,114.629z"/>
				
					<path style="fill:#0C1A3B;stroke:#0C1A3B;stroke-width:2.0524;stroke-linecap:round;stroke-linejoin:round;stroke-miterlimit:10;" d="
					M381.447,108.362l3.148,8.077c2.999-4.258,8.187-5.309,12.1-5.427c-4.51-5.174-8.563-8.048-10.349-9.182L381.447,108.362z"/>
				
					<path style="fill:#0C1A3B;stroke:#0C1A3B;stroke-width:2.0524;stroke-linecap:round;stroke-linejoin:round;stroke-miterlimit:10;" d="
					M366.449,230.979h29.136l2.997-43.978l-18.934-13.388C378.677,197.345,371.461,218.747,366.449,230.979z"/>
				
					<path style="fill:#01918B;stroke:#0C1A3B;stroke-width:2.0524;stroke-linecap:round;stroke-linejoin:round;stroke-miterlimit:10;" d="
					M362.513,121.746c-4.909-6.371-15.778-1.363-15.778-1.363s7.063-10.619,20.687-16.429l7.254,4.528L362.513,121.746z"/>
				
					<path style="fill:none;stroke:#0C1A3B;stroke-width:2.0524;stroke-linecap:round;stroke-linejoin:round;stroke-miterlimit:10;" d="
					M362.513,121.746c0,0-9.717,8.254-12.122,40.111c-2.404,31.856-1.841,47.484-1.841,47.484l-1.815,21.638"/>
				
					<path style="fill:none;stroke:#FFFFFF;stroke-width:2.0524;stroke-linecap:round;stroke-linejoin:round;stroke-miterlimit:10;" d="
					M357.411,159.252c5.105,0.601,8.96,0.601,11.539,0.451"/>
			</g>
			<g>
				<g>
					
						<path style="fill:#EE6E76;stroke:#0C1A3B;stroke-width:2.0524;stroke-linecap:round;stroke-linejoin:round;stroke-miterlimit:10;" d="
						M339.072,64.485c-0.819,7.714-1.499,16.108-1.849,20.674c-0.127,1.662,1.447,2.935,3.047,2.468l3.911-1.143
						c0,0,2.104,14.265,5.41,16.068c3.306,1.803,11.42-1.302,11.42-1.302l1.503,20.496l23.441-18.593l-6.311-20.737
						c0,0,3.005-21.939-0.301-31.856C376.037,40.642,345.082,40.242,339.072,64.485z"/>
					
						<path style="fill:#0C1A3B;stroke:#0C1A3B;stroke-width:2.0524;stroke-linecap:round;stroke-linejoin:round;stroke-miterlimit:10;" d="
						M348.07,73.754c0.679,0.908,0.632,2.09-0.105,2.642c-0.737,0.552-1.886,0.263-2.565-0.644c-0.679-0.908-0.632-2.09,0.106-2.642
						C346.243,72.558,347.391,72.846,348.07,73.754z"/>
					
						<path style="fill:none;stroke:#0C1A3B;stroke-width:2.0524;stroke-linecap:round;stroke-linejoin:round;stroke-miterlimit:10;" d="
						M351.093,90.681c4.358-1.202,6.762-4.057,6.762-4.057"/>
					
						<path style="fill:#0C1A3B;stroke:#0C1A3B;stroke-width:2.0524;stroke-linecap:round;stroke-linejoin:round;stroke-miterlimit:10;" d="
						M367.472,98.345c0,0-5.107,2.554-11.506,4.352c2.688-0.55,5.044-1.447,5.044-1.447l0.426,5.813
						C368.604,102.217,367.472,98.345,367.472,98.345z"/>
				</g>
				<g>
					<path style="fill:#F9BC14;" d="M339.448,63.114c-7.116,5.038-4.434-9.098-4.434-9.098s-7.513,1.953-7.063-7.363
						s38.468-23.742,44.328-15.177c5.86,8.565,10.89,3.456,16.79,16.98c5.9,13.524,2.818,21.828-3.116,26.297
						c-5.935,4.468-6.311,7.663-6.311,7.663c-3.149-3.638-5.114-7.052-4.968-10.068c0,0,4.367-4.959,4.517-9.467
						c0.15-4.508-7.964-0.301-10.969,2.404c-3.005,2.705-12.343,6.461-12.257-1.953C356.052,54.918,350.794,55.082,339.448,63.114z"
						/>
					
						<path style="fill:none;stroke:#0C1A3B;stroke-width:2.0524;stroke-linecap:round;stroke-linejoin:round;stroke-miterlimit:10;" d="
						M334.244,39.147c11.157-7.586,33.641-14.095,38.036-7.671c5.86,8.565,10.89,3.456,16.79,16.98
						c2.212,5.071,3.162,9.409,3.172,13.085"/>
					
						<path style="fill:none;stroke:#0C1A3B;stroke-width:2.0524;stroke-linecap:round;stroke-linejoin:round;stroke-miterlimit:10;" d="
						M327.952,46.653c-0.451,9.317,7.063,7.363,7.063,7.363s-2.683,14.136,4.434,9.098c11.346-8.032,16.604-8.196,16.518,0.219
						c-0.086,8.415,9.252,4.658,12.257,1.953c3.005-2.705,11.12-6.912,10.969-2.404c-0.15,4.508-4.517,9.467-4.517,9.467
						c0.177,4.088,2.383,7.172,4.968,10.068c0,0,2.172-4.377,7.247-8.425"/>
					
						<path style="fill:none;stroke:#0C1A3B;stroke-width:2.0524;stroke-linecap:round;stroke-linejoin:round;stroke-miterlimit:10;" d="
						M350.609,57.209c21.736-5.897,24.067-17.568,24.067-17.568"/>
					
						<path style="fill:none;stroke:#0C1A3B;stroke-width:2.0524;stroke-linecap:round;stroke-linejoin:round;stroke-miterlimit:10;" d="
						M363.243,57.209c13.996-1.57,17.602-8.784,17.602-8.784"/>
				</g>
				
					<path style="fill:#01918B;stroke:#0C1A3B;stroke-width:2.0524;stroke-linecap:round;stroke-linejoin:round;stroke-miterlimit:10;" d="
					M378.241,125.192c-7.012-7.814-15.728-3.446-15.728-3.446s18.848-20.248,21.696-24.329c0,0,3.264,0.023,4.659,6.186
					C388.868,103.602,388.058,114.774,378.241,125.192z"/>
			</g>
			<g>
				
					<path style="fill:#01918B;stroke:#0C1A3B;stroke-width:2.0524;stroke-linecap:round;stroke-linejoin:round;stroke-miterlimit:10;" d="
					M377.239,159.653c6.311,27.649,4.508,71.326,4.508,71.326h38.168c0,0,0.642-66.83-8.695-92.369c0,0-18.353-14.019-31.577,9.222"
					/>
				<g>
					<path style="fill:#FFFFFF;" d="M412.87,229.953h6.024c0.021-6.44-0.045-42.033-3.808-69.041
						C416.148,184.056,414.134,214.292,412.87,229.953z"/>
				</g>
			</g>
		</g>
		
			<polygon style="fill:#C5DEF3;stroke:#3889C8;stroke-width:2.0524;stroke-linecap:round;stroke-linejoin:round;stroke-miterlimit:10;" points="
			315.775,68.649 252.025,68.649 252.025,109.364 287.149,109.364 294.108,119.606 297.356,109.364 315.775,109.364 		"/>
	</g>
	<g>
		
			<polygon style="fill:#FFFFFF;stroke:#0C1A3B;stroke-width:2.0524;stroke-linecap:round;stroke-linejoin:round;stroke-miterlimit:10;" points="
			262.896,267.164 272.659,471.295 456.72,471.295 456.72,269.416 		"/>
		<g>
			<g>
				<g>
					
						<path style="fill:#EE6E76;stroke:#0C1A3B;stroke-width:2.0524;stroke-linecap:round;stroke-linejoin:round;stroke-miterlimit:10;" d="
						M351.678,350.788c0,0,9.257-4.03,12.482-7.009c3.465-3.201,6.591-9.975,9.074-11.454c2.483-1.479,0.247-6.087,0.247-6.087
						h-7.092c0,0-3.875-16.078-6.815-16.178c-2.94-0.1-5.645,5.454-5.645,5.454s-2.717-0.294-4.289,2.26
						c-1.571,2.555-6.831,20.638-6.831,20.638l-2.855,5.367"/>
					
						<path style="fill:none;stroke:#0C1A3B;stroke-width:1.9238;stroke-linecap:round;stroke-linejoin:round;stroke-miterlimit:10;" d="
						M351.617,338.36c4.865-4.809,11.609-5.098,11.609-5.098"/>
					
						<polygon style="fill:#FFFFFF;stroke:#0C1A3B;stroke-width:2.0524;stroke-linecap:round;stroke-linejoin:round;stroke-miterlimit:10;" points="
						379.513,294.47 353.928,318.825 365.348,336.557 389.203,312.625 					"/>
					
						<polygon style="fill:#0C1A3B;stroke:#0C1A3B;stroke-width:2.0524;stroke-linecap:round;stroke-linejoin:round;stroke-miterlimit:10;" points="
						356.767,318.825 380.47,296.262 379.513,294.47 353.928,318.825 365.348,336.557 367.073,334.826 					"/>
					
						<path style="fill:#EE6E76;stroke:#0C1A3B;stroke-width:2.0524;stroke-linecap:round;stroke-linejoin:round;stroke-miterlimit:10;" d="
						M338.343,341.71c0,0,4.307-11.314,5.738-14.77c1.431-3.456,7.442-7.513,9.846-8.114c2.404-0.601,7.989,7.63,7.006,9.753
						c-0.494,1.066-3.85,0.751-5.954-1.488c-0.372-0.396-0.72-0.642-1.041-0.78c-1.234-0.529-2.481,0.762-2.014,2.021
						c0.737,1.983,1.962,6.802-1.153,11.531"/>
				</g>
				<g>
					
						<path style="fill:none;stroke:#0C1A3B;stroke-width:2.0524;stroke-linecap:round;stroke-linejoin:round;stroke-miterlimit:10;" d="
						M350.788,308.66c0,0-13.642-1.442-17.911-9.12c-4.269-7.678,3.347-7.617,3.779-4.607c0.433,3.01-3.064,8.106-10.729,3.208"/>
					
						<line style="fill:none;stroke:#0C1A3B;stroke-width:2.0524;stroke-linecap:round;stroke-linejoin:round;stroke-miterlimit:10;" x1="355.272" y1="303.407" x2="350.382" y2="292.767"/>
				</g>
				<g>
					
						<path style="fill:#EE6E76;stroke:#0C1A3B;stroke-width:2.0524;stroke-linecap:round;stroke-linejoin:round;stroke-miterlimit:10;" d="
						M339.703,338.412l-3.406,8.263c0,0-18.433,37.98-21.238,56.156c-2.805,18.176,2.004,21.379,14.826,21.08
						c12.823-0.299,27.649-8.314,27.649-8.314l-7.805-32.892l-7.487,4.652c4.272-12.431,7.478-35.736,7.478-35.736l5.209-2.214"/>
					
						<path style="fill:#0C1A3B;stroke:#0C1A3B;stroke-width:2.0524;stroke-linecap:round;stroke-linejoin:round;stroke-miterlimit:10;" d="
						M324.48,423.752c1.609,0.166,3.41,0.205,5.405,0.158c12.823-0.3,27.649-8.314,27.649-8.314l-2.565-10.809l-10.888-2.316
						C340.839,413.032,332.492,419.668,324.48,423.752z"/>
					
						<path style="fill:none;stroke:#0C1A3B;stroke-width:2.0524;stroke-linecap:round;stroke-linejoin:round;stroke-miterlimit:10;" d="
						M331.087,394.058c7.313-5.209,16.028-10.418,16.028-10.418"/>
				</g>
				<g>
					
						<path style="fill:#C5DEF3;stroke:#0C1A3B;stroke-width:2.0524;stroke-linecap:round;stroke-linejoin:round;stroke-miterlimit:10;" d="
						M365.772,361.801c-9.44,8.715-23.565,21.338-23.565,21.338s-0.902,19.795,8.565,39.876c0,0,18.182-3.211,27.95-10.724
						s11.871-27.649,11.871-27.649"/>
					
						<path style="fill:#0C1A3B;stroke:#0C1A3B;stroke-width:2.0524;stroke-linecap:round;stroke-linejoin:round;stroke-miterlimit:10;" d="
						M365.772,361.801c-4.624,4.269-10.369,9.473-15.031,13.675c-1.181,11.68-4.337,21.245-6.659,26.996
						c1.249,6.217,3.304,13.359,6.691,20.543c0,0,18.182-3.211,27.95-10.724s11.871-27.649,11.871-27.649L365.772,361.801z"/>
				</g>
			</g>
			<g>
				<g>
					
						<path style="fill:#C5DEF3;stroke:#0C1A3B;stroke-width:2.0524;stroke-linecap:round;stroke-linejoin:round;stroke-miterlimit:10;" d="
						M367.286,289.608c-1.029-4.815-9.151-2.062-5.344,8.068C365.749,307.806,369.124,296.055,367.286,289.608z"/>
					
						<path style="fill:#EE6E76;stroke:#0C1A3B;stroke-width:2.0524;stroke-linecap:round;stroke-linejoin:round;stroke-miterlimit:10;" d="
						M373.913,277.502c-6.912,7.964-6.762,13.374-6.762,13.374s-6.762,6.912-7.513,9.617c-0.751,2.705,5.259,5.86,5.259,5.86
						s-3.005,15.177-2.404,18.182c0.601,3.005,9.617,4.508,9.617,4.508l4.057,26.447l28.25-17.13l-1.953-17.882
						c0,0,13.524-16.98,11.42-32.908C411.78,271.642,382.779,269.087,373.913,277.502z"/>
					
						<path style="fill:#C5DEF3;stroke:#0C1A3B;stroke-width:2.0524;stroke-linecap:round;stroke-linejoin:round;stroke-miterlimit:10;" d="
						M367.286,289.608c-0.197,1.854,0.045,3.39,0.538,4.659c1.66,4.273,7.52,4.585,9.812,0.615c1.31-2.269,2.396-4.992,2.038-7.413
						C378.872,282.06,369.124,280.327,367.286,289.608z"/>
					
						<path style="fill:#0C1A3B;stroke:#0C1A3B;stroke-width:2.0524;stroke-linecap:round;stroke-linejoin:round;stroke-miterlimit:10;" d="
						M383.781,326.238c0,0-8.512,2.904-14.398,2.21c1.538,0.395,2.728,0.595,2.728,0.595l1.437,9.368
						C379.906,335.123,383.781,326.238,383.781,326.238z"/>
					
						<path style="fill:none;stroke:#0C1A3B;stroke-width:2.0524;stroke-linecap:round;stroke-linejoin:round;stroke-miterlimit:10;" d="
						M368.754,312.214c7.614-0.2,9.617-4.308,9.617-4.308"/>
					
						<line style="fill:none;stroke:#0C1A3B;stroke-width:2.0524;stroke-linecap:round;stroke-linejoin:round;stroke-miterlimit:10;" x1="379.513" y1="290.353" x2="396.158" y2="295.631"/>
					
						<path style="fill:#0C1A3B;stroke:#0C1A3B;stroke-width:1.621;stroke-linecap:round;stroke-linejoin:round;stroke-miterlimit:10;" d="
						M374.535,290.729c-0.136,0.885-0.83,1.512-1.549,1.401c-0.719-0.111-1.191-0.918-1.055-1.803
						c0.137-0.885,0.83-1.512,1.549-1.401C374.199,289.037,374.672,289.845,374.535,290.729z"/>
				</g>
				<g>
					<path style="fill:#93415D;" d="M375.595,276.193c12.104-2.645,17.101,4.164,17.101,4.164l-1.593,1.416
						c-0.831,0.739-1.057,1.947-0.549,2.936l7.252,14.13c0,0,9.016-2.404,9.767,1.803c0.751,4.207-9.016,7.263-9.016,7.263
						s3.271,6.749,3.907,12.572c0.636,5.824,0.885,8.1,0.885,8.1s7.68-9.658,15.644-14.439c0.094-0.056,0.187-0.113,0.278-0.17
						c5.736-3.563,7.63-10.955,4.643-17.011c-1.69-3.427-3.569-8.412-4.32-14.648c-1.503-12.472-15.327-25.846-26.747-22.239
						c0,0-12.668-6.311-23.465,1.202C358.586,268.787,366.459,278.189,375.595,276.193z"/>
					
						<path style="fill:none;stroke:#0C1A3B;stroke-width:2.0524;stroke-linecap:round;stroke-linejoin:round;stroke-miterlimit:10;" d="
						M369.382,261.273c-10.796,7.513-2.923,16.916,6.213,14.919c12.104-2.645,17.101,4.164,17.101,4.164l-2.009,1.786
						c-0.587,0.522-0.746,1.374-0.388,2.073l7.506,14.625c0,0,9.016-2.404,9.767,1.803c0.751,4.207-9.016,7.263-9.016,7.263
						s3.271,6.749,3.907,12.572c0.636,5.824,0.885,8.1,0.885,8.1"/>
					
						<path style="fill:none;stroke:#0C1A3B;stroke-width:2.0524;stroke-linecap:round;stroke-linejoin:round;stroke-miterlimit:10;" d="
						M377.75,275.808c-6.992-7.472,4.202-19.419,15.097-15.737"/>
					
						<path style="fill:none;stroke:#0C1A3B;stroke-width:2.0524;stroke-linecap:round;stroke-linejoin:round;stroke-miterlimit:10;" d="
						M384.212,268.862c8.409-4.884,19.679,2.029,19.679,2.029"/>
					
						<path style="fill:none;stroke:#0C1A3B;stroke-width:2.0524;stroke-linecap:round;stroke-linejoin:round;stroke-miterlimit:10;" d="
						M396.904,275.808c10.519,3.572,15.16,30.243,25.724,35.127"/>
					
						<path style="fill:none;stroke:#0C1A3B;stroke-width:2.0524;stroke-linecap:round;stroke-linejoin:round;stroke-miterlimit:10;" d="
						M415.161,287.305c2.855,10.032,8.19,14.465,12.923,15.667"/>
					
						<path style="fill:none;stroke:#0C1A3B;stroke-width:2.0524;stroke-linecap:round;stroke-linejoin:round;stroke-miterlimit:10;" d="
						M410.278,306.654c2.329,7.589,5.337,9.795,5.337,9.795"/>
					
						<path style="fill:none;stroke:#0C1A3B;stroke-width:2.0524;stroke-linecap:round;stroke-linejoin:round;stroke-miterlimit:10;" d="
						M405.694,311.913c1.352,5.936,4.583,9.151,4.583,9.151"/>
				</g>
			</g>
			<g>
				
					<path style="fill:#C5DEF3;stroke:#0C1A3B;stroke-width:2.0524;stroke-linecap:round;stroke-linejoin:round;stroke-miterlimit:10;" d="
					M375.694,352.404c-12.349,8.696-14.353,17.812-14.353,17.812s-12.823,34.361-16.83,61.609
					c-4.007,27.248-3.005,39.47-3.005,39.47h86.353c0,0,11.22-76.335,8.816-95.77c-2.404-19.434-27.449-33.86-27.449-33.86
					l-4.809-3.306L375.694,352.404z"/>
				
					<path style="fill:#0C1A3B;stroke:#0C1A3B;stroke-width:2.0524;stroke-linecap:round;stroke-linejoin:round;stroke-miterlimit:10;" d="
					M376.687,471.295h51.172c0,0,9.648-65.647,9.131-90.681l-39.615,11.341C394.771,421.641,384.076,452.714,376.687,471.295z"/>
				
					<path style="fill:#FFFFFF;stroke:#0C1A3B;stroke-width:2.0524;stroke-linecap:round;stroke-linejoin:round;stroke-miterlimit:10;" d="
					M376.581,351.97c12.058,1.567,12.622,9.832,12.622,9.832l21.074-19.496c0,0,0.233-5.599-2.664-8.454
					C407.614,333.852,380.752,343.34,376.581,351.97z"/>
				
					<path style="fill:#FFFFFF;stroke:#0C1A3B;stroke-width:2.0524;stroke-linecap:round;stroke-linejoin:round;stroke-miterlimit:10;" d="
					M367.752,401.021c0,0,1.352-32.458,8.829-49.051l0,0l-0.888,0.434c-0.028,0.019-0.055,0.039-0.083,0.059
					c-4.235,2.995-7.189,7.499-8.325,12.56c-3.776,16.821-5.394,37.05-5.394,37.05L367.752,401.021z"/>
			</g>
			<g>
				<g>
					
						<path style="fill:#EE6E76;stroke:#0C1A3B;stroke-width:2.0524;stroke-linecap:round;stroke-linejoin:round;stroke-miterlimit:10;" d="
						M405.619,432.226l5.41,39.069h32.057c0,0-1.002-41.825-2.204-50.264"/>
					
						<path style="fill:#0C1A3B;stroke:#0C1A3B;stroke-width:2.0524;stroke-linecap:round;stroke-linejoin:round;stroke-miterlimit:10;" d="
						M442.153,441.792c-0.361-9.028-0.801-17.457-1.272-20.762l-19.872,6.309l-5.618,7.623
						C427.608,434.411,436.73,438.419,442.153,441.792z"/>
				</g>
				<g>
					
						<path style="fill:#C5DEF3;stroke:#0C1A3B;stroke-width:2.0524;stroke-linecap:round;stroke-linejoin:round;stroke-miterlimit:10;" d="
						M396.904,377.021c-0.601,22.196,6.612,59.813,6.612,59.813c16.759-2.576,31.733-4.757,42.525-10.869
						c0,0-0.451-27.348-3.606-41.624c-3.156-14.275-13.654-25.862-13.654-25.862s-5.429-3.44-13.995-1.186"/>
					
						<path style="fill:none;stroke:#0C1A3B;stroke-width:2.0524;stroke-linecap:round;stroke-linejoin:round;stroke-miterlimit:10;" d="
						M408.775,359.547c-8.565,6.912-10.519,11.12-10.519,11.12"/>
					<g>
						<path style="fill:#F9BC14;" d="M402.726,426.364c0.201,1.228,0.392,2.368,0.571,3.411c17.234-1.6,31.935-7.142,41.475-11.668
							c-0.062-1.517-0.139-3.192-0.232-4.979C435.19,417.461,420.762,423.015,402.726,426.364z"/>
					</g>
				</g>
			</g>
		</g>
		
			<polygon style="fill:#C5DEF3;stroke:#3889C8;stroke-width:2.0524;stroke-linecap:round;stroke-linejoin:round;stroke-miterlimit:10;" points="
			315.775,307.588 252.025,307.588 252.025,348.304 287.149,348.304 294.108,358.546 297.356,348.304 315.775,348.304 		"/>
	</g>
</g>
</svg>
